<?xml version="1.0" encoding="UTF-8"?><svg xmlns="http://www.w3.org/2000/svg" xmlns:xlink="http://www.w3.org/1999/xlink" height="851.7" preserveAspectRatio="xMidYMid meet" version="1.0" viewBox="11.0 -8.5 688.1 851.7" width="688.1" zoomAndPan="magnify"><g id="change1_1"><path d="m465.24 837.21c-2.1427-2.3063-5.294-7.1106-7.004-10.674-2.9786-6.2045-3.5316-6.4249-13.074-5.2065-6.6691 0.85046-10.975 0.36774-13.02-1.4597-2.5666-2.2949-4.1772-1.4501-10.087 5.3023-12.27 14.014-19.086-2.358-8.4942-20.405 2.4341-4.1492 5.3568-10.451 6.4945-14.009 1.1796-3.6915 4.652-7.8578 8.0912-9.7102 7.5013-4.0418 4.596-15.074-3.9697-15.074-6.8993 0-11.057-2.1762-11.057-5.7851 0-4.3235 10.913-15.767 15.036-15.767 1.8357 0 5.6273-1.9406 8.4261-4.3101 10.428-8.8366 23.439-4.2487 30.553 10.771 5.4633 11.54 6.6341 11.857 18.358 4.9863 12.771-7.4842 17.798-14.595 19.096-27.008 1.9822-18.936-4.9136-25.794-37.452-37.243-22.588-7.9477-30.492-12.434-37.318-21.182-3.2629-4.1818-13.464-11.591-23.889-17.35-10.007-5.5265-21.806-13.38-26.219-17.449-8.0266-7.4018-8.0266-7.4018-13.76-0.95587-7.072 7.9515-5.5087 11.741 7.6549 18.564 17.163 8.8979 20.283 32.845 5.5574 42.649-6.8976 4.5936-12.476 20.575-9.1118 26.108 6.9674 11.455-8.1313 16.962-19.679 7.1777-5.2713-4.467-5.2713-4.467-5.2713 7.3444 0 12.744-8.201 33.76-13.174 33.76-4.0377 0-8.8327-8.8558-8.8327-16.309 0-14.405-7.0424-15.472-9.8203-1.4904-4.7008 23.663-10.194 30.004-20.496 23.659-6.1334-3.7756-6.2817-3.7583-9.3963 1.0785-15.682 24.351-20.806 24.964-27.386 3.2718-3.9556-13.043-8.3563-15.568-7.3111-4.1971 2.0607 22.416-14.697 35.5-26.62 20.782-8.0021-9.8768-8.0021-9.8768-14.003-6.4958-3.3013 1.86-7.8031 3.379-10.004 3.3752-2.2003-0.003723-6.4823 3.155-9.5149 7.0168-7.2134 9.1909-16.413 0.82562-15.123-13.752 0.78975-8.919-0.73389-10.474-10.266-10.474-3.0625 0-7.9149-1.9883-10.783-4.4192-4.0895-3.4653-6.0618-3.929-9.1408-2.1552-12.119 6.9881-16.078-1.7412-7.1902-15.85 2.7506-4.3676 5.0014-8.6967 5.0014-9.6239 0-8.8806 18.996-14.166 27.594-7.6777 2.4624 1.8582 6.4889 3.0497 8.9482 2.6493 4.1825-0.68188 4.083-0.93665-1.5321-3.9557-3.5767-1.9252-6.0317-4.9556-6.0762-7.5013-0.13994-8.0417-2.9024-10.212-11.18-8.7849-8.2134 1.4136-9.3551-0.082336-5.6912-7.4574 6.905-13.9 43.774-14.823 51.894-1.2988 8.6895 14.474 32.453 5.0629 57.418-22.738 22.734-25.318 22.38-37.045-1.9979-66.095-47.711-56.856-45.563-120.88 4.0604-120.99 26.522-0.063263 73.919-14.543 54.615-16.685-21.077-2.3388-53.179-15.29-65.018-26.232-14.655-13.543-26.955-6.6375-17.006 9.5492 7.4996 12.198 4.7985 16.164-11.012 16.164-6.4264 0-10.288-1.4519-14.842-5.58-6.1543-5.5801-6.1543-5.5801-6.1543 8.4803 0 28.433-10.682 42.254-23.605 30.54-5.9054-5.354-5.9054-5.354-4.8944 4.3082 3.338 31.9-16.258 44.334-34.899 22.144-3.2565-3.8752-3.5364-3.6818-7.5032 5.2181-4.1208 9.2426-4.1208 9.2426-15.624 9.189-9.4054-0.044067-11.503 0.5976-11.503 3.5247 0 12.921-23.739 32.236-28.182 22.93-8.7444-18.313-17.784-18.313-24.906 0-3.7313 9.5952-9.0366 8.9975-17.777-2.0037-8.4371-10.618-9.5842-21.57-3.178-30.343 4.9484-6.7774-0.56046-9.4362-12.139-5.8598-9.8455 3.0419-9.8465 3.0419-9.8465-7.7466 0-11.9 7.8034-27.604 15.98-32.159 11.185-6.2295 8.0564-15.648-6.4772-19.497-6.6633-1.7662-6.94-3.971-1.0553-8.4114 5.6716-4.2794 21.37-4.3368 26.986-0.099579 2.7313 2.0612 4.7737 2.4558 5.5647 1.0785 4.8283-8.4172 25.021 4.5303 25.021 16.043 0 17.392 22.217-3.5362 35.153-33.113 4.2976-9.825 11.053-20.664 16.914-27.136 6.7448-7.4459 12.57-17.313 18.858-31.94 10.699-24.889 10.366-23.016 4.0966-23.016-7.7326 0-6.073-5.2353 4.787-15.1 11.596-10.534 7.5706-27.994-6.4584-28.012-15.983-0.021057-23.278-11.856-14.351-23.282 4.9833-6.3808 4.9833-6.3808-4.3034-8.8998-21.591-5.8578-23.893-9.8231-15.753-27.146 2.7132-5.7736 4.7386-10.664 4.5013-10.867-0.23735-0.20303-3.5825-2.0841-7.4336-4.176-3.8512-2.0937-9.9592-6.5819-13.574-9.9725-3.6142-3.3925-7.8374-6.1663-9.3848-6.1663-7.3635 0-4.3842-9.122 7.4879-22.926 3.9304-4.5706 5.0684-7.2582 3.5111-8.2964-3.7173-2.4749-15.198 0.77388-19.085 5.4019-10.949 13.032-17.971-6.8923-9.0602-25.709 3.9081-8.2524 3.9081-8.2524-4.1265-12.156-20.766-10.087-22.877-26.72-3.4142-26.892 11.694-0.1029 23.336-13.88 17.442-20.64-4.5437-5.2102-4.5437-5.2102-9.7861 0.20056-6.5868 6.7982-6.8342 6.7844-21.703-1.2197-17.681-9.5181-24.479-21.387-12.249-21.387 4.5222 0 8.092-2.2763 13.921-8.877 6.1602-6.9759 8.8203-8.5948 12.424-7.5598 14.562 4.1827 14.916 4.1561 8.0187-0.60496-3.613-2.4941-7.0853-5.9839-7.7163-7.7552-0.83825-2.3529-4.3226-3.2203-12.937-3.2203-18.95 0-10.22-15.197 12.888-22.434 15.867-4.969 18.374-4.4654 25.53 5.128 8.4952 11.388 11.014 8.9465 4.6747-4.5307-4.2703-9.0784-6.6969-11.55-14.984-15.26-12.226-5.474-12.321-7.2467-0.67982-12.794 17.218-8.205 54.81 3.2132 54.81 16.648 0 4.9604 0.075577 4.9774 5.989 1.3524 5.1525-3.1584 5.991-4.933 6.0017-12.704 0.01796-12.763 3.3349-13.636 12.333-3.2431 15.427 17.817 10.674 45.124-9.9038 56.895-12.117 6.9314-9.6317 20.138 7.3621 39.123 9.7358 10.877 16.254 20.772 22.21 33.715 31.064 67.5 44.645 75.946 97.05 60.348 16.763-4.9882 20.593-7.2007 14.954-8.6355-7.1226-1.8121-7.161-7.6336-0.10818-16.288 3.7551-4.607 6.1595-9.9227 6.1595-13.616 0-5.4365 2.7517-13.718 8.1312-24.473 3.1566-6.3095 2.2928-6.2463-10.623 0.77676-49.33 26.826-93.535 13.018-93.535-29.219 0-5.5435-1.8409-13.808-4.2802-19.217-10.429-23.124 7.5118-31.665 26.226-12.486 7.9602 8.1568 8.0632 8.4602 8.0632 23.78 0 27.979 11.689 32.492 48.627 18.774 10.789-4.0072 20.028-7.728 20.53-8.2684 1.3854-1.4934-6.6899-20.116-10.012-23.086-4.1581-3.7178-8.6599-18.536-10.002-32.92-1.4064-15.057 0.80963-16.808 29.463-23.292 18.131-4.1032 18.58-4.3583 28.424-16.126 11.354-13.572 16.371-15.775 51.398-22.579 14.915-2.8969 25.65-6.4659 35.462-11.789 20.911-11.345 30.182-0.39546 19.14 22.608-3.0344 6.3203-3.0344 6.3203 7.8782 12.955 14.542 8.8408 24.237 20.811 28.046 34.63 4.1825 15.177 7.7107 20.45 17.152 25.639 14.359 7.8911-2.387 24.322-29.627 29.07-8.5901 1.4974-8.5901 1.4974-7.36 20.15 3.1007 46.98 10.665 61.946 32.797 64.89 21.612 2.8753-2.9209 27.856-29.675 30.216-18.053 1.5938-26.316 43.694-19.005 96.823 2.7291 19.84-40.478-0.99609-55.421-26.724-2.757-4.7487-3.7568-5.4287-3.762-2.5573-0.003479 2.1493 6.6638 11.451 14.816 20.671 17.692 20.006 24.298 37.858 15.889 42.928-2.9558 1.7815-2.7796 2.7374 1.7188 9.2657 2.757 4.0036 7.592 12.484 10.745 18.847 3.1512 6.3617 15.969 23.334 28.484 37.716 12.516 14.38 24.2 28.573 25.966 31.536 38.227 64.136 130.65 77.855 156.64 23.253 15.06-31.636-0.49384-46.727-49.887-48.397-63.415-2.1435-93.79-12.244-116.18-38.643-52.434-61.804-14.964-167.44 67.081-189.1 92.324-24.384 123.48-52.155 123.68-110.27 0.18146-51.065-60.663-86.412-79.871-46.399-10.37 21.605 22.977 47.48 38.978 30.243 8.447-9.099 3.9522-19.397-8.4644-19.397-8.4087 0-11.715-4.2775-7.5189-9.7258 3.9069-5.0709 22.218-4.2461 28.758 1.2953 26.885 22.783 4.6152 62.239-35.202 62.361-16.584 0.050735-16.584 0.050735-3.5805 7.0044 33.942 18.149 29.367 53.212-8.6356 66.196-10.53 3.5975-11.152 1.5938-2.647-8.5454 13.148-15.678 7.47-30.299-15.229-39.215-6.7405-2.6479-16.137-8.0054-20.88-11.906-9.9023-8.1426-11.258-6.2086-2.886 4.12 21.206 26.166 21.042 58.153-0.35425 68.616-18.721 9.1565-43.898-0.24904-45.011-16.817-0.74512-11.116 5.6534-12.907 13.591-3.8044 9.4783 10.869 24.922 8.8998 23.636-3.0151-0.46765-4.3292-2.9524-6.808-11.145-11.112-5.7983-3.0458-11.542-6.6161-12.766-7.9336-1.6315-1.757-4.1459-1.286-9.4329 1.7673-17.313 9.9955-36.278-4.2516-36.278-27.253 0-13.888 1.6751-14.454 12.267-4.1451 17.714 17.239 27.746 4.765 27.746-34.5 0-111.72 179.09-120.35 185.54-8.9395 4.4199 76.441-37.036 119.43-137.52 142.6-15.357 3.5419-43.804 20.232-52.827 30.996-4.5804 5.4633-3.9539 5.5724 6.0688 1.0497 6.2153-2.8044 11.546-3.2163 26.969-2.0784 23.056 1.703 32.169-0.94821 52.089-15.152 20.058-14.298 25.779-16.221 52.158-17.531 35.242-1.7489 32.729 6.8406-5.4877 18.771-14.097 4.4001-20.934 7.7754-25.596 12.633-11.734 12.227-31.099 21.363-48.651 22.951-38.71 3.5037-60.147 10.335-68.554 21.849-6.4666 8.8577-5.0044 10.109 4.1738 3.5726 8.2377-5.8675 8.8484-5.9595 40.511-6.0935 40.335-0.16864 44.605-1.7011 65.158-23.408 17.88-18.884 18.883-19.487 37.683-22.608 8.0701-1.339 17.859-3.8695 21.75-5.6204 9.9581-4.4825 12.588-4.038 12.588 2.1301 0 8.6375-11.331 18.892-26.077 23.596-13.602 4.3407-16.289 6.7064-37.159 32.709-16.421 20.458-32.998 27.06-66.414 26.447-36.543-0.66855-50.651 9.8001-50.314 37.335 0.083771 6.762 0.27045 6.5724 3.502-3.5687 7.2797-22.847 16.248-25.533 72.432-21.69 28.278 1.9328 35.711-1.7795 46.074-23.02 12.582-25.788 27.859-37.034 48.559-35.745 15.12 0.9425 15.336 9.3155 0.39612 15.286-15.486 6.1892-20.323 12.683-27.8 37.316-7.435 24.497-28.992 34.164-71.342 31.998-29.121-1.4884-29.121-1.4884-35.01 4.0285-16.308 15.281 11.788 31.029 50.173 28.123 19.73-1.4941 34.223 0.98648 47.388 8.1125 9.7538 5.2813 9.583 5.3655 9.583-4.6721 0-12.844 4.6013-22.552 18.006-37.99 6.6011-7.603 12.003-14.723 12.003-15.825 0-3.3676 12.239-17.236 15.21-17.236 10.74 0 1.1708 40.04-13.132 54.952-9.5516 9.9572-9.6022 13.254-0.63171 40.737 9.9791 30.571 1.7518 72.244-17.189 87.063-7.4438 5.8272-7.4438 5.8272-2.853 13.149 8.4593 13.493 3.7637 31.927-5.7512 22.581-20.858-20.487-47.583-6.9534-29.67 15.026 7.8347 9.6124 7.6898 10.028-3.5002 10.026-9.5499-0.001892-31.487-9.3326-38.899-16.545-3.1007-3.0189-3.6522-2.6127-6.5347 4.8178-3.5247 9.0894-2.8198 13.675 2.9716 19.322 5.6082 5.4671 4.9172 7.4938-2.551 7.4861-10.047-0.013367-19.089-7.2064-23.722-18.87-5.6639-14.267-10.574-19.173-27.751-27.726-8.2289-4.0993-17.008-9.5205-19.506-12.049-5.0741-5.1376-6.0094-2.8831-1.4797 3.5688 1.8043 2.5687 2.9384 9.0396 2.9384 16.775 0 30.381 40.686 66.118 62.017 54.474 17.765-9.6987 36.011-1.6876 36.011 15.807 0 9.8767 3.4254 17.761 11.857 27.297 6.5712 7.4305 12.15 18.957 12.15 25.106 0 2.8658-5.615 2.1589-12.263-1.544-6.0634-3.3771-6.0634-3.3771-4.6518 9.1584 1.6315 14.491 3.8545 20.081 7.9829 20.081 4.2488 0 3.5962 5.9305-0.93872 8.5453-2.1288 1.226-6.9359 2.2298-10.682 2.2298-5.3585 0-7.3076 1.1725-9.1345 5.4902-3.167 7.488-2.9804 9.0128 2.0293 16.591 4.9468 7.486 0.41699 14.558-9.3231 14.558-3.3606 0-4.8193 1.5572-5.6498 6.0283-1.9683 10.605-16.231 25.763-21.197 22.527-5.2958-3.4481-6.191-3.3886-6.191 0.41956 0 12.578-10.05 15.2-18.887 4.9288-5.2976-6.1586-9.3754-9.3443-10.178-7.9458-0.73456 1.2815 0.10114 4.0437 1.86 6.1356 5.3534 6.3731 3.6695 11.731-7.3687 23.476-12.448 13.243-15.442 13.99-15.442 3.8522 0-9.4955-5.9519-16.964-8.2289-10.329-0.81836 2.3792-3.3084 5.7007-5.5366 7.3827-2.2282 1.6798-4.9712 5.6642-6.0967 8.8518-2.4516 6.9479-8.4418 7.6298-14.041 1.5976zm-138.55-676.31c2.1899-6.9928 2.1829-7.0044-4.6117-7.0044-6.8051 0-6.8051 0-2.3958 7.284 2.4237 4.0061 4.5001 7.1582 4.6118 7.0043 0.11166-0.15382 1.19-3.4316 2.3957-7.284zm18.407-3.7716c2.127-2.7605 1.5424-3.2327-4.0011-3.2327s-6.1281 0.47218-4.001 3.2327c1.3697 1.7781 3.1705 3.2328 4.001 3.2328 0.83063 0 2.6314-1.4547 4.0011-3.2328zm8.0021-26.46c0-7.588-6.5346-11.468-11.26-6.685-4.4862 4.5405-5.0602 4.634-8.1295 1.3277-3.0693-3.3065-3.4741-3.3038-5.7407 0.035995-2.045 3.0127-3.2839 3.1793-7.6601 1.0312-4.3116-2.1161-5.2207-2.0219-5.2207 0.54002 0 2.4092 3.9138 3.2634 17.505 3.821 9.6284 0.39519 18.18 0.91777 19.005 1.1616 0.82535 0.24367 1.5006-0.31091 1.5006-1.2325z" fill="#fff"/></g><g id="change2_1"><path d="m465.24 837.21c-2.143-2.307-5.294-7.111-7.004-10.674-2.979-6.205-3.532-6.425-13.075-5.207-6.669 0.85101-10.975 0.36798-13.02-1.459-2.567-2.295-4.177-1.45-10.087 5.302-12.27 14.015-19.086-2.358-8.495-20.405 2.435-4.149 5.357-10.451 6.495-14.008 1.18-3.692 4.652-7.858 8.091-9.711 7.501-4.041 4.596-15.073-3.97-15.073-6.899 0-11.057-2.176-11.057-5.785 0-4.324 10.913-15.767 15.036-15.767 1.835 0 5.627-1.941 8.426-4.311 10.427-8.836 23.439-4.248 30.553 10.772 5.463 11.539 6.634 11.857 18.358 4.986 12.771-7.484 17.798-14.595 19.096-27.008 1.983-18.935-4.913-25.793-37.452-37.243-22.588-7.947-30.492-12.434-37.318-21.182-3.263-4.182-13.464-11.591-23.89-17.35-10.007-5.526-21.806-13.38-26.219-17.449-8.026-7.401-8.026-7.401-13.76-0.95599-7.072 7.952-5.508 11.741 7.655 18.564 17.163 8.898 20.283 32.845 5.558 42.649-6.898 4.594-12.476 20.575-9.112 26.107 6.967 11.456-8.132 16.963-19.679 7.178-5.272-4.467-5.272-4.467-5.272 7.345 0 12.744-8.201 33.76-13.174 33.76-4.037 0-8.832-8.856-8.832-16.309 0-14.406-7.043-15.473-9.821-1.491-4.7 23.663-10.193 30.004-20.495 23.66-6.133-3.776-6.282-3.759-9.396 1.078-15.682 24.351-20.807 24.964-27.387 3.272-3.955-13.043-8.356-15.568-7.311-4.197 2.061 22.416-14.697 35.499-26.62 20.782-8.002-9.877-8.002-9.877-14.003-6.496-3.301 1.86-7.803 3.379-10.003 3.375-2.2-0.003052-6.483 3.155-9.515 7.017-7.214 9.191-16.414 0.82599-15.123-13.752 0.78999-8.919-0.735-10.474-10.267-10.474-3.062 0-7.915-1.988-10.782-4.419-4.09-3.4659-6.062-3.929-9.141-2.155-12.119 6.988-16.079-1.742-7.191-15.85 2.751-4.368 5.003-8.699 5.003-9.624 0-8.88 18.994-14.166 27.593-7.678 2.462 1.859 6.49 3.05 8.948 2.65 4.183-0.68201 4.083-0.93701-1.532-3.956-3.577-1.925-6.032-4.956-6.076-7.501-0.14101-8.042-2.903-10.212-11.179-8.785-8.215 1.413-9.356-0.083008-5.692-7.458 6.905-13.899 43.774-14.822 51.893-1.298 8.69 14.474 32.454 5.063 57.418-22.738 22.734-25.319 22.38-37.046-1.998-66.096-47.711-56.856-45.563-120.88 4.06-120.99 26.523-0.062988 73.919-14.543 54.616-16.685-21.077-2.338-53.18-15.29-65.019-26.232-14.655-13.543-26.955-6.637-17.006 9.55 7.5 12.198 4.799 16.163-11.012 16.163-6.426 0-10.287-1.452-14.842-5.58-6.154-5.58-6.154-5.58-6.154 8.48 0 28.434-10.682 42.254-23.605 30.541-5.905-5.354-5.905-5.354-4.894 4.308 3.338 31.9-16.259 44.334-34.9 22.144-3.256-3.875-3.536-3.682-7.503 5.218-4.12 9.243-4.12 9.243-15.624 9.189-9.405-0.044006-11.503 0.59802-11.503 3.525 0 12.92-23.739 32.235-28.182 22.929-8.7444-18.313-17.784-18.313-24.906 0-3.7313 9.596-9.0366 8.998-17.777-2.003-8.4372-10.618-9.5843-21.57-3.178-30.343 4.9483-6.778-0.5605-9.436-12.139-5.86-9.8454 3.042-9.8464 3.042-9.8464-7.747 0-11.899 7.8033-27.603 15.98-32.158 11.185-6.23 8.0564-15.649-6.4772-19.497-6.6633-1.766-6.94-3.971-1.0553-8.412 5.6716-4.279 21.37-4.337 26.987-0.098999 2.7313 2.061 4.7737 2.456 5.5646 1.078 4.8283-8.417 25.021 4.531 25.021 16.041 0 17.394 22.217-3.534 35.153-33.111 4.298-9.825 11.053-20.663 16.915-27.136 6.745-7.446 12.569-17.313 18.858-31.94 10.698-24.889 10.365-23.016 4.097-23.016-7.734 0-6.074-5.235 4.786-15.101 11.597-10.533 7.571-27.994-6.458-28.011-15.983-0.021027-23.278-11.856-14.352-23.282 4.984-6.381 4.984-6.381-4.303-8.9-21.591-5.858-23.893-9.823-15.753-27.146 2.713-5.773 4.739-10.664 4.501-10.867-0.237-0.203-3.582-2.084-7.433-4.176-3.851-2.093-9.959-6.582-13.574-9.972-3.6142-3.393-7.8374-6.167-9.3848-6.167-7.3635 0-4.3842-9.122 7.4879-22.925 3.9307-4.571 5.0687-7.26 3.5107-8.297-3.7169-2.475-15.198 0.774-19.085 5.402-10.949 13.032-17.971-6.892-9.0602-25.709 3.9081-8.252 3.9081-8.252-4.1265-12.156-20.766-10.088-22.877-26.721-3.4143-26.891 11.694-0.104 23.336-13.881 17.442-20.64-4.5437-5.21-4.5437-5.21-9.7861 0.2-6.5868 6.799-6.8343 6.785-21.703-1.219-17.681-9.518-24.479-21.387-12.249-21.387 4.5222 0 8.092-2.277 13.921-8.877 6.1602-6.9766 8.8203-8.5952 12.424-7.5603 14.562 4.1823 14.916 4.1563 8.0187-0.6049-3.613-2.4941-7.0853-5.9839-7.7163-7.7552-0.8382-2.3529-4.3226-3.2203-12.937-3.2203-18.95 0-10.22-15.197 12.888-22.434 15.867-4.9691 18.374-4.4655 25.53 5.128 8.4952 11.388 11.015 8.9465 4.6747-4.5309-4.2703-9.0782-6.6969-11.549-14.984-15.26-12.226-5.4738-12.321-7.2465-0.6798-12.794 17.218-8.205 54.809 3.2132 54.809 16.648 0 4.9604 0.076004 4.9774 5.989 1.3524 5.152-3.1585 5.992-4.933 6.002-12.704 0.017014-12.763 3.334-13.636 12.333-3.2431 15.428 17.817 10.673 45.124-9.904 56.895-12.116 6.9315-9.631 20.138 7.363 39.124 9.735 10.877 16.254 20.772 22.209 33.715 31.065 67.5 44.645 75.946 97.05 60.347 16.763-4.988 20.593-7.201 14.954-8.635-7.123-1.813-7.161-7.634-0.10901-16.289 3.756-4.607 6.16-9.922 6.16-13.616 0-5.436 2.752-13.717 8.131-24.473 3.157-6.308 2.293-6.245-10.623 0.778-49.33 26.826-93.535 13.016-93.535-29.219 0-5.544-1.841-13.808-4.28-19.217-10.429-23.124 7.512-31.665 26.226-12.486 7.96 8.157 8.063 8.46 8.063 23.78 0 27.979 11.689 32.493 48.627 18.774 10.788-4.007 20.028-7.728 20.528-8.269 1.388-1.493-6.688-20.115-10.01-23.085-4.158-3.718-8.66-18.536-10.002-32.92-1.406-15.057 0.81-16.808 29.463-23.292 18.131-4.1032 18.579-4.3583 28.424-16.126 11.354-13.571 16.371-15.775 51.398-22.579 14.915-2.897 25.65-6.4659 35.461-11.789 20.911-11.345 30.182-0.39538 19.14 22.608-3.034 6.3203-3.034 6.3203 7.878 12.955 14.542 8.8406 24.237 20.811 28.046 34.63 4.183 15.177 7.711 20.45 17.153 25.639 14.358 7.891-2.388 24.322-29.627 29.07-8.59 1.498-8.59 1.498-7.36 20.15 3.101 46.98 10.665 61.946 32.797 64.89 21.612 2.876-2.921 27.857-29.676 30.217-18.052 1.594-26.316 43.694-19.005 96.823 2.729 19.84-40.478-0.996-55.421-26.724-2.757-4.749-3.757-5.429-3.762-2.558-0.003998 2.15 6.663 11.452 14.816 20.672 17.691 20.006 24.297 37.857 15.889 42.928-2.956 1.781-2.78 2.737 1.718 9.266 2.757 4.003 7.592 12.483 10.745 18.847 3.152 6.362 15.97 23.334 28.484 37.716 12.516 14.38 24.2 28.573 25.966 31.536 38.227 64.136 130.65 77.855 156.64 23.254 15.06-31.636-0.49402-46.727-49.887-48.398-63.415-2.143-93.79-12.246-116.18-38.643-52.434-61.804-14.964-167.44 67.081-189.1 92.324-24.383 123.48-52.155 123.68-110.27 0.18097-51.064-60.663-86.412-79.871-46.399-10.37 21.605 22.977 47.48 38.977 30.243 8.447-9.099 3.952-19.397-8.464-19.397-8.409 0-11.716-4.2775-7.519-9.7258 3.907-5.071 22.218-4.2463 28.758 1.2953 26.885 22.783 4.615 62.239-35.202 62.361-16.583 0.050995-16.583 0.050995-3.58 7.005 33.941 18.149 29.366 53.212-8.636 66.196-10.53 3.598-11.152 1.594-2.647-8.545 13.148-15.678 7.47-30.299-15.229-39.216-6.741-2.648-16.137-8.005-20.88-11.905-9.902-8.143-11.258-6.209-2.886 4.12 21.206 26.167 21.042 58.153-0.354 68.616-18.721 9.157-43.898-0.24899-45.011-16.817-0.746-11.116 5.653-12.907 13.591-3.804 9.478 10.869 24.922 8.9 23.636-3.015-0.46802-4.33-2.953-6.808-11.145-11.113-5.798-3.045-11.542-6.616-12.765-7.934-1.632-1.757-4.146-1.285-9.433 1.768-17.313 9.996-36.279-4.251-36.279-27.253 0-13.888 1.676-14.454 12.267-4.145 17.714 17.24 27.746 4.765 27.746-34.5 0-111.72 179.09-120.35 185.54-8.939 4.42 76.44-37.035 119.43-137.52 142.6-15.357 3.542-43.804 20.232-52.827 30.996-4.58 5.463-3.954 5.573 6.069 1.05 6.215-2.804 11.546-3.216 26.969-2.078 23.056 1.702 32.169-0.949 52.089-15.153 20.058-14.298 25.779-16.221 52.158-17.531 35.242-1.749 32.729 6.84-5.487 18.771-14.097 4.4-20.934 7.775-25.596 12.633-11.735 12.227-31.1 21.362-48.652 22.95-44.847 4.06-64.297 11.498-71.996 27.533-2.842 5.923-2.842 5.923 6.378-1.073 9.22-6.995 9.22-6.995 41.558-7.131 40.552-0.16901 44.778-1.682 65.35-23.409 17.88-18.884 18.883-19.487 37.683-22.607 8.07-1.339 17.859-3.87 21.75-5.621 9.958-4.482 12.588-4.038 12.588 2.13 0 8.638-11.332 18.892-26.078 23.597-13.601 4.34-16.288 6.706-37.159 32.708-16.421 20.459-32.998 27.06-66.414 26.447-36.544-0.66898-50.651 9.8-50.315 37.334 0.084015 6.763 0.271 6.573 3.502-3.568 7.28-22.847 16.249-25.533 72.433-21.69 28.278 1.932 35.711-1.78 46.074-23.02 12.582-25.788 27.859-37.034 48.559-35.745 15.119 0.94299 15.336 9.316 0.396 15.287-15.486 6.189-20.323 12.683-27.8 37.315-7.4351 24.497-28.991 34.165-71.342 31.998-29.12-1.488-29.12-1.488-35.009 4.029-16.308 15.28 11.788 31.028 50.172 28.122 19.73-1.494 34.223 0.987 47.388 8.113 9.754 5.281 9.583 5.365 9.583-4.672 0-12.844 4.602-22.553 18.006-37.99 6.601-7.603 12.003-14.723 12.003-15.825 0-3.367 12.239-17.236 15.21-17.236 10.74 0 1.171 40.039-13.132 54.952-9.551 9.957-9.602 13.254-0.63098 40.737 9.979 30.571 1.751 72.244-17.189 87.063-7.444 5.826-7.444 5.826-2.853 13.149 8.459 13.493 3.763 31.927-5.752 22.581-20.858-20.487-47.583-6.954-29.67 15.026 7.835 9.612 7.69 10.028-3.5 10.026-9.55-0.002014-31.487-9.333-38.899-16.545-3.101-3.019-3.652-2.613-6.535 4.818-3.524 9.089-2.82 13.675 2.972 19.322 5.608 5.467 4.917 7.494-2.551 7.486-10.047-0.013-19.089-7.206-23.722-18.87-5.664-14.268-10.574-19.173-27.751-27.726-8.229-4.1-17.007-9.521-19.506-12.049-5.074-5.138-6.01-2.883-1.48 3.568 1.804 2.569 2.939 9.04 2.939 16.775 0 30.381 40.685 66.118 62.017 54.474 17.764-9.699 36.011-1.688 36.011 15.807 0 9.877 3.425 17.761 11.857 27.297 6.571 7.431 12.149 18.957 12.149 25.106 0 2.865-5.615 2.159-12.263-1.544-6.063-3.377-6.063-3.377-4.652 9.158 1.632 14.492 3.855 20.081 7.983 20.081 4.249 0 3.596 5.931-0.93896 8.546-2.128 1.226-6.936 2.229-10.682 2.229-5.358 0-7.308 1.173-9.134 5.491-3.167 7.488-2.981 9.012 2.029 16.59 4.947 7.486 0.41699 14.559-9.323 14.559-3.361 0-4.82 1.557-5.65 6.028-1.968 10.605-16.231 25.763-21.197 22.527-5.296-3.448-6.191-3.388-6.191 0.41998 0 12.578-10.051 15.2-18.887 4.929-5.297-6.159-9.375-9.345-10.178-7.946-0.73401 1.281 0.10095 4.044 1.86 6.136 5.354 6.371 3.67 11.731-7.368 23.475-12.449 13.243-15.443 13.99-15.443 3.852 0-9.495-5.952-16.964-8.229-10.329-0.81799 2.38-3.308 5.701-5.536 7.383-2.229 1.68-4.971 5.664-6.097 8.852-2.452 6.948-8.442 7.63-14.041 1.598zm11.207-17.861c-7.552-5.176-14.878-0.25098-11.106 7.465 3.984 8.149 6.554 8.413 10.094 1.036 2.429-5.057 2.701-7.342 1.012-8.501zm34.699 0.505c4.275-6.465 4.275-6.465-2.69-6.465-6.908 0-6.947 0.052002-4.699 6.465 1.246 3.556 2.457 6.465 2.69 6.465 0.23398 0 2.349-2.909 4.699-6.465zm-81.56-8.62c1.187 0 0.461-2.021-1.614-4.49-3.77-4.49-3.77-4.49-8.312 1.197-7.444 9.324-6.231 15.984 1.614 8.871 3.386-3.068 7.126-5.578 8.312-5.578zm56.177-4.724c-1.322-7.124 4.548-18.587 7.751-15.135 1.332 1.435 1.246 3.669-0.25601 6.695-3.134 6.308 0.76001 14.697 5.044 10.866 1.756-1.569 6.092-2.111 11.106-1.387 6.076 0.87903 7.64 0.55701 5.982-1.226-5.332-5.747 0.30499-18.796 8.121-18.796 2.057 0 4.514 2.182 5.461 4.848 4.513 12.71 9.756 13.823 14.069 2.985 4.342-10.913 5.232-11.521 10.032-6.841 3.699 3.607 4.011 2.397 4.564-17.696 0.17102-6.222 0.995-11.315 1.827-11.315 2.79 0 4.063 14.397 1.99 22.487-1.847 7.204-1.733 7.714 1.139 5.147 4.107-3.668 8.571-15.195 8.571-22.131 0-4.952 0.41296-5.206 4.875-3.017 7.353 3.609 12.736 0.84302 8.402-4.316-8.164-9.717-1.464-30.498 9.832-30.498 7.003 0 7.003 0 4.062-6.124-3.058-6.375-6.723-39.135-4.376-39.135 0.73798 0 4.602 1.469 8.587 3.262 10.38 4.672 10.199 2.96-1.115-10.497-7.063-8.404-10.389-14.375-11.215-20.135-3.503-24.445-10.198-29.971-26.119-21.558-21.155 11.177-30.829 7.846-53.057-18.265-16.65-19.56-16.65-19.56-20.325-14.672-5.52 7.345-6.779 3.362-2.751-8.702 4.526-13.564 3.531-23.248-5.029-48.895-6.519-19.536-6.563-28.146-0.092987-18.166 11.002 16.976 21.944 27.176 37.763 35.208 17.575 8.923 23.719 15.442 29.627 31.428 1.874 5.07 5.177 10.24 7.341 11.487 4.941 2.851 6.699 1.284 2.636-2.348-4.086-3.655-3.878-7.318 1.311-23.24 4.4-13.495 4.4-13.495 10.523-7.23 12.864 13.166 38.276 24.669 32.113 14.536-12.94-21.276 16.361-39.683 37.994-23.868 10.103 7.386 8.553-2.3701-2.293-14.425-7.06-7.846-7.06-7.846 0.003967-10.357 23.428-8.331 35.908-54.82 23.844-88.835-7.966-22.455-8.079-32.609-0.44696-39.818 10.574-9.986 17.953-24.079 17.834-34.063-0.104-8.737-0.104-8.737-3.465-3.35-1.848 2.963-8.524 11.258-14.835 18.432-13.834 15.721-17.606 24.686-17.606 41.846 0 7.149-0.36603 12.999-0.815 12.999-0.448 0-5.175-2.402-10.504-5.339-17.114-9.432-31.272-12.17-54.797-10.599-43.973 2.939-71.872-18.932-51.773-40.585 6.149-6.623 6.149-6.623 35.198-5.356 44.57 1.946 62.099-5.481 70.581-29.906 9.365-26.962 14.509-33.948 28.453-38.636 8.665-2.912 8.665-2.912 1.663-3.036-15.842-0.27802-30.981 11.246-38.003 28.931-11.902 29.971-25.937 34.59-84.655 27.858-24.451-2.804-45.957 22.252-36.325 42.318 3.149 6.562 3.127 6.658-1.433 5.963-12.097-1.847-17.226-31.104-8.85-50.484 8.018-18.548 14.596-21.469 46.772-20.763 33.691 0.73999 50.588-5.392 64.982-23.582 23.627-29.859 23.387-29.64 37.817-34.362 13.828-4.525 28.916-14.557 17.693-11.766-2.75 0.68402-11.302 2.318-19.005 3.63-18.053 3.075-19.032 3.68-38.081 23.553-21.183 22.1-28.955 24.833-64.992 22.87-34.98-1.908-59.974 14.993-59.974 40.555 0 1.817-0.89999 3.304-2.001 3.304-3.461 0-2.175-22.487 2.043-35.691 8.918-27.926 19.108-33.019 83.441-41.708 18.576-2.51 31.45-8.588 45.055-21.273 6.889-6.425 12.814-9.434 26.206-13.311 21.224-6.144 21.827-7.588 2.382-5.69-18.771 1.834-25.571 4.301-38.077 13.827-21.595 16.447-33.57 20.508-56.03 19.001-20.182-1.353-32.082 0.94199-49.524 9.549-21.928 10.823 9.086-28.341 32.548-41.101 12.638-6.871 19.766-9.4 57.988-20.569 73.76-21.556 107.46-62.602 103.5-126.06-6.5-104.23-171.27-92.166-171.48 12.558-0.077026 38.048-16.613 56.187-34.444 37.782-9.114-9.406-7.962 3.689 1.19 13.55 8.565 9.228 14.873 9.4 24.111 0.66299 7.045-6.664 7.045-6.664 12.139-0.14299 2.8 3.586 8.105 7.591 11.787 8.899 8.696 3.092 13.079 8.498 14.491 17.873 2.673 17.738-18.006 22.483-32.82 7.534-3.511-3.542-4.502-3.822-4.502-1.268 0 10.591 20.578 18.709 32.738 12.915 21.01-10.013 21.974-35.082 2.314-60.252-6.509-8.334-11.461-25.921-10.623-37.74 0.64002-9.042 0.64002-9.042 5.81 2.886 7.202 16.613 15.765 23.653 44.23 36.362 14.331 6.398 23.213 27.732 15.158 36.41-4.251 4.578 1.209 2.729 7.21-2.443 14.919-12.863 8.684-34.645-13.286-46.415-33.27-17.822-49.761-49.023-35.62-67.393 3.916-5.088 3.916-5.088 2.87 8.9207-1.424 19.044 2.487 27.06 17.078 35.022 37.45 20.434 84.791-15.284 58.209-43.919-5.747-6.1928-20.055-9.0708-20.055-4.0342 0 1.1854 3.086 2.1552 6.859 2.1552 13.963 0 18.215 16.423 7.299 28.184-15.518 16.716-52.169 1.179-52.169-22.116 0-47.709 72.928-44.624 93.278 3.9464 24.853 59.312-13.953 112.72-101.34 139.48-160.05 49.004-144.94 219.99 19.564 221.38 49.511 0.41901 64.517 9.243 64.517 37.938 0 75.566-120.03 78.292-171.97 3.906-4.137-5.927-17.787-22.443-30.333-36.707-15.394-17.498-25.235-30.812-30.272-40.947-7.943-15.982-13.937-24.027-21.346-28.648-5.278-3.293-5.133-2.927 4.968 12.551 3.483 5.335 7.978 12.609 9.991 16.164 7.271 12.84-8.729-5.331-18.251-20.73-8.343-13.488-14.867-21.468-14.867-18.185 0 2.827 4.671 10.859 12.576 21.629 4.369 5.951 11.078 16.156 14.91 22.675 3.832 6.518 8.892 14.192 11.246 17.05 2.355 2.858 3.041 4.423 1.526 3.475-7.852-4.906-38.577-48.085-46.428-65.245-5.159-11.281-5.833-11.369-5.833-0.76401 0 6.909 1.919 11.009 10.855 23.167 16.735 22.778 31.609 46.024 29.449 46.024-2.379 0-24.848-29.198-34.371-44.664-3.813-6.193-7.608-11.285-8.433-11.315-4.064-0.15201-0.103 7.741 14.533 28.948 8.817 12.777 16.529 24.33 17.138 25.671 2.935 6.476-21.801-24.255-28.925-35.939-8.95-14.673-8.686-14.342-17.278-21.713-6.03-5.17-6.03-5.17-5.304 10.316 0.776 16.55-3.103 31.454-8.186 31.454-3.786 0-44.21-44.739-48.387-53.552-3.421-7.217-3.421-7.217-8.573 3.233-19.779 40.114-37.68 57.289-44.029 42.237-1.876-4.444-3.671-8.496-3.991-9.002-0.317-0.505-1.846 0.94699-3.395 3.23-1.55 2.282-3.331 3.596-3.96 2.918-0.629-0.677 0.63901-3.291 2.815-5.809 2.202-2.543 3.429-6.062 2.766-7.924-1.672-4.695-2.707-4.285-9.213 3.657-5.401 6.591-5.661 6.687-4.422 1.616 0.72401-2.963 3.465-7.867 6.093-10.894 10.377-11.962 5.203-14.198-5.789-2.503-5.811 6.183-11.213 11.242-12.003 11.242-3.307 0-0.821-4.312 9.733-16.874 6.145-7.316 10.689-13.3 10.097-13.3-4.76 0-11.788 6.977-20.237 20.087-6.863 10.652-10.182 14.303-10.647 11.716-0.37201-2.067 1.043-6.433 3.142-9.699 6.516-10.135 6.896-11.327 3.614-11.327-1.703 0-7.681 6.789-13.282 15.085-14.493 21.468-19.135 21.028-7.011-0.664 3.772-6.747 5.796-12.251 4.501-12.233-3.699 0.050995-5.859 2.398-13.357 14.51-10.795 17.438-14.31 15.17-3.9-2.517 3.358-5.703 5.649-10.861 5.089-11.465-3.077-3.314-8.133 3.835-17.294 24.451-6.793 15.284-13.521 26.782-19.973 34.132-5.352 6.095-12.359 17.345-15.572 25-16.045 38.226-44.296 55.173-49.292 29.569-2.205-11.3-10.543-14.409-16.532-6.166-2.7968 3.85-7.218 7.873-9.8249 8.94-7.3434 3.007-5.7449 5.632 7.2637 11.921 19.391 9.374 16.06 12.648-4.8644 4.781-12.414-4.668-12.708-4.678-18.339-0.703-4.1595 2.934-4.9143 4.308-2.7631 5.024 5.8001 1.929 9.9622 7.647 9.9622 13.687 0 7.347-0.1112 7.329 9.0789 1.487 6.0342-3.835 7.6061-4.123 9.0261-1.648 1.0885 1.899 0.7596 3.577-0.8961 4.575-9.3694 5.649-17.614 21.391-10.444 19.943 5.2647-1.063 8.6862-0.45801 12.463 2.209 5.3147 3.75 8.6485 2.526 9.4661-3.475 0.3821-2.805 3.6589-8.362 11.645-19.754 5.7629-8.22 6.1682-2.423 0.6507 9.306-5.3974 11.474-5.65 23.543-0.4199 20.054 1.3432-0.896 5.9861-2.149 10.318-2.783 7.8756-1.153 7.8756-1.153 2.5008-7.394-5.4073-6.279-7.0904-14.992-3.3741-17.466 1.1605-0.77197 2.0003 1.333 2.0003 5.013 0 4.451 1.5493 7.438 5.1906 10.009 3.525 2.488 4.8691 4.988 4.189 7.788-0.5509 2.27-0.2506 4.627 0.6672 5.237 3.2482 2.163 4.2492-7.899 1.8069-18.167-3.5699-15.005-0.6076-21.725 3.8803-8.802 2.863 8.243 4.454 9.99 10.601 11.637 10.438 2.797 12.852 0.93896 17.806-13.698 4.433-13.097 4.433-13.097 10.895-4.979 20.645 25.939 31.804 16.79 26.773-21.95-2.9-22.342-0.53699-28.353 5.86-14.909 12.884 27.069 24.364 19.521 24.364-16.019 0-21.127 0.621-21.743 11.265-11.173 6.674 6.628 10.261 8.591 15.699 8.591 7.66 0 8.876-2.147 3.793-6.691-2.659-2.379-3.041-5.634-2.09-17.84 1.371-17.623 3.435-20.952 8.167-13.173 6.003 9.871 16.931 7.013 22.92-5.992 3.727-8.097 5.306-9.781 7.405-7.904 5.961 5.329 21.745-7.802 16.913-14.072-2.104-2.731-1.971-3.295 0.76999-3.295 4.17 0 5.983 4.9 4.371 11.82-1.277 5.484-10.183 11.874-16.592 11.905-3.878 0.019012-13.344 16.344-11.423 19.696 5.748 10.017 42.098 22.068 76.842 25.473 33.719 3.307 43.56 5.655 51.691 12.335 6.891 5.662 6.891 5.662 5.518-2.222-1.444-8.281 0.54401-10.189 4.824-4.634 8.384 10.884-1.028 24.18-27.023 38.174-29.796 16.039-30.557 17.489-23.835 45.549 9.433 39.392 26.669 60.413 67.597 82.448 16.643 8.961 30.56 17.179 30.927 18.263 0.88098 2.606-1.03 2.491-5.971-0.35803-2.224-1.281-4.518-1.816-5.101-1.187-2.537 2.733 19.62 14.642 40.285 21.655 32.816 11.134 38.408 17.555 36.752 42.204-1.677 24.987-36.086 50.051-46.606 33.946-1.743-2.666-5.191-8.242-7.665-12.391-7.718-12.946-18.796-10.979-17.667 3.139 0.32398 4.042-0.449 9.436-1.716 11.988-2.975 5.986-2.732 6.176 12.864 10.007 14.835 3.645 16.287 8.511 1.842 6.178-20-3.232-32.521 7.599-22.708 19.64 3.312 4.063 6.022 8.81 6.022 10.546 0 6.478 13.614 2.35 15.237-4.619 1.359-5.833 13.447-18.085 17.841-18.085 4.423 0 3.664 1.577-5.071 10.528-10.288 10.543-10.359 13.635-0.28 11.9 5.135-0.88501 9.659-0.23804 13.5 1.931 6.826 3.852 9.096 1.547 7.41-7.531zm-43.036 4.291c1.321-1.421 2.401-4.704 2.401-7.294 0-2.688 2.221-6.278 5.176-8.362 6.423-4.534 8.246-3.204 2.839 2.067-2.208 2.153-4.014 5.509-4.014 7.459 0 3.947-3.723 8.718-6.801 8.718-1.112 0-0.93399-1.149 0.39902-2.588zm35.582-1.519c-3.905-4.649-3.64-15.516 0.41498-16.951 1.859-0.659 2.234 0.60803 1.332 4.483-0.69299 2.967-0.20801 7.511 1.075 10.093 3.092 6.224 1.521 7.545-2.822 2.375zm27.847-10.928c-1.288-6.318-0.16901-10.827 2.684-10.827 0.80102 0 1.6 3.879 1.776 8.62 0.37302 10.068-2.562 11.52-4.46 2.207zm28.998-8.546c0-5.995 0.901-10.903 2-10.903 1.101 0 2.001 4.308 2.001 9.572s-0.89996 10.17-2.001 10.904c-1.232 0.82001-2-2.853-2-9.573zm-43.608-6.277c-2.078-1.419-1.989-2.316 0.44498-4.492 2.471-2.207 3.603-2.111 6.046 0.521 2.673 2.879 2.661 3.379-0.108 4.525-3.764 1.555-3.23 1.601-6.383-0.55402zm33.083-8.697c-0.54199-2.239-0.23498-5.384 0.68402-6.988 0.91998-1.601 1.197-5.346 0.61597-8.319-1.057-5.406-1.057-5.406 2.921-0.53601 3.982 4.877 8.009-1.77 5.9-9.734-0.328-1.237 0.30499-2.308 1.404-2.381 1.155-0.074036 1.827 4.956 1.592 11.9-0.40198 11.804-2.267 17.374-4.033 12.047-0.48999-1.481-1.757-2.693-2.814-2.693-1.058 0-1.777 1.212-1.597 2.693 0.995 8.252-2.842 11.547-4.673 4.011zm-45.491 1.056c0-0.91797 15.488-9.915 17.067-9.915 3.142 0 0.020996 4.71-4.964 7.488-5.506 3.065-12.103 4.39-12.103 2.427zm-25.934-10.9c-1.33-1.726-1.813-4.193-1.074-5.4821 0.73999-1.289 0.23801-3.78-1.113-5.534-1.352-1.755-1.902-3.789-1.221-4.523 2.148-2.314 7.335 3.919 7.335 8.814 0 2.58 1.08 5.855 2.401 7.279 1.867 2.011 1.7 2.586-0.755 2.586-1.736 0-4.244-1.412-5.573-3.14zm89.703-4.4041c-1.068-4.597-0.43103-22.629 0.79901-22.629 2.809 0 5.374 10.653 4.151 17.241-1.019 5.492-4.139 8.888-4.95 5.388zm30.23-5.444c-2.608-5.252-1.799-28.404 1.028-29.408 1.222-0.43298 2.002 6.003 2.002 16.533 0 19.114 0.021973 19.018-3.03 12.875zm-20.808-16.07c0.97198-4.176 0.151-7.513-2.973-12.064-4.901-7.141-4.214-7.816 2.874-2.812 4.797 3.387 4.931 3.331 4.931-2.029 0-3.028-0.89996-6.1071-2.001-6.84-3.284-2.186-2.263-5.958 1.223-4.517 2.575 1.065 2.984 0.30402 2.031-3.784-0.83404-3.58 0.22998-6.898 3.547-11.056 10.382-13.017 7.817-30.548-4.116-28.135-7.592 1.535-18.69-3.601-18.69-8.648 0-2.864 0.513-2.864 4.56-0.007996 2.879 2.032 8.454 3.044 15.118 2.743 13.627-0.61298 19.949 6.072 15.163 16.043-1.557 3.243-2.832 7.331-2.832 9.084s-1.574 4.883-3.5 6.957c-3.152 3.395-3.869 7.781-4.541 27.724-0.078003 2.337-1.369 5.732-2.87 7.544s-3.034 5.643-3.41 8.513c-0.37598 2.871-1.847 5.634-3.271 6.139-1.89 0.67102-2.225-0.638-1.243-4.854zm34.23-22.203c-3.32-3.954-6.212-24.171-3.455-24.171 0.84497 0 2.03 3.954 2.632 8.789 0.60101 4.833 2.521 10.485 4.264 12.56 1.745 2.077 3.17 4.425 3.17 5.222 0 2.689-3.362 1.469-6.611-2.4zm-100.42-28.991c-8.332-3.226-21.007-12.037-21.007-14.604 0-3.398 2.316-2.489 13.912 5.471 6.001 4.118 12.025 7.488 13.386 7.488s3.032 0.96899 3.711 2.155c1.548 2.697-2.214 2.505-10.002-0.50995zm-0.726-8.235c-8.503-5.586-6.897-7.913 2.028-2.942 3.671 2.046 8.93 4.459 11.689 5.362 4.891 1.603 4.867 1.647-0.98801 1.821-3.301 0.097961-9.029-1.812-12.729-4.241zm7.812-3c-1.586-2.059-1.757-3.342-0.44601-3.342 1.169 0 2.683 0.96899 3.362 2.155 0.681 1.1851 2.645 2.155 4.366 2.155 2.636 0 2.711-0.539 0.47601-3.439-2.317-3.009-2.034-3.346 2.256-2.695 2.721 0.414 4.907 2.188 4.907 3.9789 0 4.559-11.611 5.484-14.921 1.187zm95.195-1.36c-2.91-2.465-4.799-5.338-4.198-6.386 0.60004-1.048 2.713-0.242 4.695 1.789 1.982 2.03 5.326 4.848 7.43 6.26 3.163 2.122 3.267 2.59 0.59302 2.693-1.776 0.070984-5.611-1.89-8.52-4.356zm-163.41-27.473c-25.25-9.99-44.671-27.303-54.621-48.69-8.153-17.534-5.346-17.034 4.673 0.83106 10.047 17.911 27.249 33.546 48.812 44.367 15.334 7.695 15.861 9.317 1.136 3.492zm-7.275-9.628c-18.963-10.748-42.027-38.446-40.258-48.345 0.40298-2.257 3.487 1.348 8.452 9.882 7.739 13.296 27.334 34.736 31.848 34.845 5.561 0.13397 18.559 8.212 13.344 8.292-2.75 0.041992-8.774-2.061-13.386-4.674zm2.382-6.886c-8.107-3.063-19.026-14.446-25.62-26.707-5.024-9.341-0.72098-8.477 4.681 0.94196 4.398 7.662 23.356 24.665 27.505 24.665 1.211 0 2.757 0.97101 3.438 2.157 1.612 2.81-0.297 2.609-10.004-1.057zm0.723-11.689c-2.599-2.2679-4.274-4.607-3.724-5.195 0.551-0.58801 3.701 1.262 7.002 4.114 3.302 2.851 4.977 5.19 3.724 5.195-1.255 0.006042-4.404-1.846-7.002-4.114zm58.295-41.329c0-12.614-4.341-33.484-9.107-43.779-7.484-16.167 5.172-32.503 15.148-19.552 3.425 4.444 1.265 6.248-3.581 2.99-10.425-7.015-12.891 1.699-5.107 18.041 6.037 12.676 9.288 46.978 4.9 51.706-1.67 1.798-2.253-0.63599-2.253-9.406zm72.337 1.272c-4.942-13.319-7.551-16.982-16.321-22.918-10.373-7.023-7.635-8.262 4.054-1.837 8.703 4.781 16.723 18.577 15.428 26.536-0.69104 4.242-0.98901 4.0731-3.161-1.7809zm31.505-12.061c-5.58-6.417-8.014-10.568-6.194-10.568 3.048 0 18.386 16.478 18.386 19.756 0 3.576-3.172 1.185-12.192-9.188zm-528.2-13.503c-1.6863-3.986-1.3905-6.67 1.3657-12.391 1.9349-4.017 3.8815-6.146 4.3258-4.73 0.4441 1.416-0.1829 4.569-1.3933 7.0049-1.5364 3.092-1.5756 5.688-0.1297 8.597 2.5994 5.234 2.6052 6.609 0.027401 6.609-1.1239 0-3.012-2.291-4.1959-5.09zm509.39 0.78c-1.565-2.728 1.084-2.728 5.001 0 2.586 1.799 2.534 2.094-0.38202 2.121-1.86 0.018982-3.94-0.93701-4.619-2.121zm75.022-2.157c-1.65-1.147-7.503-2.17-13.004-2.272-14.827-0.27399-19.613-3.241-5.79-3.589 10.04-0.25305 22.795 3.66 22.795 6.995 0 1.42-0.56299 1.261-4.001-1.134zm-518.87-6.917c-1.587-6.385-1.627-21.931-0.067001-26.311 2.548-7.154 3.782-2.831 3.635 12.739-0.158 16.882-1.487 21.937-3.568 13.572zm396.33 3.278c-1.925-0.54199-3.5-1.92-3.5-3.06 0-1.275 1.345-1.327 3.5-0.13202 1.926 1.067 4.853 2.479 6.503 3.138 3.877 1.55-1.047 1.59-6.503 0.054016zm-13.474-9.191c-2.734-2.265-4.533-4.581-4.001-5.148 0.534-0.56702 3.671 1.301 6.972 4.153 7.066 6.102 4.312 7.023-2.971 0.99506zm-348.16-6.638c-1.57-4.088-2.057-10.689-1.294-17.616 1.788-16.274 4.732-17.1 4.512-1.264-0.103 7.459 0.504 16.231 1.351 19.491 2.085 8.03-1.426 7.561-4.569-0.61096zm236.1-2.168c0-1.234 3.595-5.927 7.988-10.429 4.616-4.729 8.523-11.062 9.254-14.999 1.411-7.608 4.765-9.271 4.765-2.364 0 6.283-3.355 12.609-11.645 21.951-7.254 8.174-10.362 9.927-10.362 5.841zm12.005-0.916c0-1.82 0.92001-3.31 2.043-3.31 1.124 0 3.131-2.571 4.46-5.712 2.415-5.715 2.415-5.715 3.825 1.616 0.77499 4.031 0.569 8.251-0.45898 9.377-1.174 1.287-1.867 1.059-1.867-0.61499 0-1.994-1.005-2.084-4.001-0.354-3.195 1.841-4.001 1.638-4.001-1.002zm-22.734-4.377c0.63199-1.772 4.654-5.345 8.939-7.938 10.29-6.232 16.784-20.108 15.008-32.073-1.555-10.474 1.837-11.386 3.65-0.979 2.26 12.971-1.846 23.524-13.378 34.391-10.475 9.873-16.357 12.602-14.219 6.5991zm-280.86-5.936c0.458-1.483 2.5301-3.048 4.6041-3.481 3.263-0.68201 3.41-0.31799 1.09 2.693-3.173 4.119-6.8824 4.632-5.6941 0.78802zm-0.4237-10.149c7.2548-6.682 9.9278-7.906 9.9278-4.546 0 2.605-10.841 10.923-14.238 10.923-1.4391 0 0.5006-2.87 4.31-6.377zm364.03 3.542c0-4.548 7.724-11.256 10.063-8.737 1.289 1.388-0.10702 3.77-4.049 6.909-4.28 3.41-6.014 3.937-6.014 1.828zm-339.04-1.912c-0.77599-2.017-0.684-4.927 0.205-6.465s1.442-5.222 1.228-8.186c-0.381-5.288-0.34901-5.279 1.729 0.54098 2.488 6.965-0.604 20.765-3.162 14.11zm-65.167-6.214c-1.228-2.471-1.7415-5.025-1.1409-5.67 0.6006-0.64801 0.1917-2.989-0.9086-5.205-1.3687-2.755-1.3308-4.027 0.1199-4.027 1.1663 0 2.9989 2.667 4.0724 5.927 1.0736 3.261 2.8595 7.624 3.9686 9.699 1.5337 2.868 1.3109 3.772-0.9306 3.772-1.6212 0-3.9525-2.023-5.1808-4.496zm42.104-5.203c7.097-7.888 9.209-9.39 6.823-4.85-2.647 5.036-9.5127 12.394-11.565 12.394-1.1244 0 1.0096-3.395 4.7421-7.544zm32.811-6.754c0.10899-7.942 1.099-14.76 2.199-15.151 1.2-0.42499 2.001 5.036 2.001 13.635 0 8.502-0.896 14.672-2.2 15.149-1.467 0.53802-2.133-4.002-2-13.633zm50.239 7.154c-3.933-10.141-3.917-27.452 0.028-32.856 2.824-3.865 2.96-3.421 1.799 5.873-0.69099 5.531-0.246 15.128 0.98801 21.329 2.708 13.598 1.336 16.355-2.815 5.654zm277.06 1.755c1.37-1.778 3.841-3.233 5.491-3.233 2.442 0 2.536 0.60303 0.51199 3.233-1.37 1.778-3.842 3.234-5.491 3.234-2.441 0-2.538-0.604-0.51199-3.234zm-317.12-14.003c0.194-5.923 0.847-11.302 1.452-11.953 1.752-1.887 3.923 13.855 2.553 18.506-2.281 7.743-4.361 4.339-4.005-6.553zm12.42 0.77c-0.685-0.73898-0.29999-3.245 0.85501-5.57 1.156-2.326 1.534-6.657 0.843-9.626-0.90401-3.875-0.528-5.14 1.33-4.483 3.664 1.299 4.432 15.465 1.005 18.53-1.532 1.369-3.347 1.887-4.033 1.149zm11.737-19.635c0.858-4.444 1.504-10.263 1.434-12.93-0.072006-2.666 0.658-4.848 1.621-4.848 3.064 0 4.422 10.89 2.055 16.483-1.252 2.966-1.764 6.287-1.135 7.385 0.629 1.096-0.36 1.994-2.197 1.994-2.806 0-3.092-1.297-1.778-8.084zm196.94 5.927c0-1.323-0.90601-1.804-2.014-1.067-1.108 0.73801-2.534-0.11301-3.167-1.892-0.681-1.912-2.516-2.719-4.486-1.975-2.637 0.996-2.837 0.67801-0.95999-1.51 1.921-2.239 3.589-1.94 8.726 1.561 3.902 2.663 5.492 4.902 4.125 5.812-1.223 0.814-2.224 0.397-2.224-0.92899zm-144.07-3.266c-3.622-4.703-3.833-29.387-0.263-30.716 2.055-0.76599 2.399 0.52802 1.416 5.344-0.713 3.496-0.328 11.013 0.857 16.706 2.389 11.48 1.872 13.706-2.01 8.666zm116.17-8.714c2.645-3.034 5.139-4.457 5.54-3.161 1.012 3.274-3.5 8.676-7.247 8.676-2.36 0-1.952-1.32 1.707-5.515zm7.89 2.284c1.37-1.78 3.391-3.234 4.492-3.234 1.116 0 0.89801 1.429-0.491 3.234-1.369 1.777-3.39 3.231-4.491 3.231-1.115 0-0.89899-1.429 0.48999-3.231zm-168.05-8.623c0-8.371 2.72-9.836 6.002-3.231 1.452 2.921 1.475 4.31 0.069992 4.31-1.139 0-2.071 1.454-2.071 3.232 0 1.779-0.89999 3.233-2 3.233-1.101 0-2.001-3.394-2.001-7.544zm136.04 6.322c0-1.291 14.052-16.02 15.283-16.02 2.114 0 0.117 4.754-4.458 10.61-4.529 5.799-10.825 8.944-10.825 5.41zm16.489-4.59c2.968-3.197 6.017-5.143 6.777-4.323 1.942 2.092-5.222 10.135-9.028 10.135-2.303 0-1.701-1.555 2.251-5.812zm-26.159 1.908c0.98401-2.576 17.672-18.391 17.672-16.746 0 2.312-6.723 12.911-9.976 15.733-3.428 2.973-8.708 3.668-7.696 1.013zm-6.336-6.929c2.752-2.323 7.477-6.898 10.501-10.166 7.546-8.152 6.971-2.501-0.70502 6.916-3.569 4.377-8.035 7.587-10.503 7.545-4.16-0.069-4.137-0.203 0.707-4.295zm-13.003-0.609c2.2-1.411 7.812-6.689 12.469-11.727 9.503-10.275 11.766-11.442 8.367-4.31-4.474 9.388-14.453 18.863-19.728 18.732-4.868-0.12201-4.921-0.24802-1.108-2.695zm-96.083-1.584c-0.70999-1.237-0.37-3.444 0.75401-4.904 1.125-1.459 2.328-7.478 2.673-13.374 0.367-6.234 1.466-10.272 2.63-9.645 1.099 0.59299 1.628 2.047 1.172 3.233-0.455 1.186-0.993 6.519-1.195 11.854-0.20201 5.335-0.50401 10.911-0.67201 12.392-0.37099 3.273-3.586 3.54-5.362 0.44397zm465.52-5.331c-5.601-7.67-7.512-22.738-4.054-31.96 2.726-7.269 25.731-35.808 25.731-31.921 0 1.134-5.4009 8.482-12.004 16.33-13.746 16.34-15.285 24.501-7.923 41.982 4.715 11.195 4.006 13.452-1.75 5.569zm-384.44 2.295c0-0.53799 3.144-2.584 6.99-4.55 7.82-3.999 19.017-16.65 19.017-21.489 0-1.737 0.901-3.158 2-3.158 6.327 0-3.521 22.215-11.923 26.896-5.439 3.029-16.084 4.552-16.084 2.301zm-70.922-7.471c-1.828-3.187 0.30699-13.104 2.822-13.104 3.238 0 3.591 3.061 1.089 9.455-1.594 4.073-2.944 5.333-3.911 3.649zm48.128-3.584c-1.904-5.344-1.422-13.832 0.787-13.832 1.101 0 2 2.003 2 4.453 0 2.448 0.933 6.328 2.071 8.62 1.598 3.217 1.418 4.169-0.785 4.169-1.573 0-3.405-1.535-4.073-3.41zm-32.179-11.137c0.80901-2.075 1.91-5.954 2.448-8.622 1.359-6.753 3.893-6.053 4.901 1.356 0.59201 4.333-0.237 6.933-2.746 8.62-5.04 3.391-6.31 3.017-4.603-1.354zm57.974-10.072c3.483-3.021 6.327-4.224 6.777-2.872 0.94199 2.832-5.352 8.099-9.661 8.084-2.033-0.007996-1.03-1.82 2.884-5.212zm239.27-16.549c-0.41302-24.347 12.612-34.436 37.207-28.822 41.633 9.503 66.817-0.066986 81.497-30.965 4.533-9.544 6.028-7.498 2.038 2.789-11.192 28.858-35.423 39.327-75.395 32.574-29.28-4.948-37.69-0.20902-42.606 24.003-2.537 12.493-2.537 12.493-2.741 0.42099zm-28.126-27.473c-0.27499-15.904 17.868-35.964 34.191-37.797 15.68-1.764 57.856-2.873 56.57-1.49-0.604 0.651-15.06 1.793-32.122 2.534-26.419 1.15-31.801 1.973-36.257 5.557-7.889 6.347-16.439 18.564-19.532 27.912-2.091 6.322-2.783 7.119-2.85 3.284zm101.94-46.84c4.952-3.035 11.47-8.044 14.485-11.134 3.013-3.088 5.939-5.12 6.5-4.517 1.317 1.42-12.098 13.036-20.384 17.651-10.105 5.628-10.562 4.103-0.60101-2zm-108.03-13.643c0-10.612 45.621-28.32 62.019-24.071 6.13 1.588 5.383 1.829-6.002 1.942-17.569 0.176-50.014 12.974-50.014 19.731 0 0.96298-1.351 2.308-3.001 2.99-1.651 0.68201-3.002 0.41598-3.002-0.59201zm73.647-25.366c1.445-0.62299 3.171-0.54599 3.836 0.168 0.66504 0.71701-0.51898 1.226-2.626 1.133-2.332-0.104-2.806-0.61298-1.21-1.301zm15.38-1.717c5.502-1.593 10.274-2.609 10.605-2.258 1.105 1.168-12.139 5.448-16.405 5.3-2.312-0.080017 0.29797-1.448 5.8-3.042zm20.26-7.411c4.54-2.22 8.869-5.109 9.62-6.417 0.75201-1.31 2.266-2.381 3.366-2.381 3.709 0-0.45404 4.342-8.294 8.652-4.284 2.355-8.948 4.259-10.368 4.232-1.419-0.024994 1.134-1.864 5.676-4.086zm-42.912-92.933c-2.551-5.988-7.273-14.121-10.494-18.073-3.219-3.952-7.03-10.195-8.466-13.875-2.611-6.689-2.611-6.689-10.107 2.973-6.131 7.9-8.665 9.628-13.9 9.477-6.402-0.186-6.402-0.186-0.685-2.031 13.332-4.304 19.291-16.222 19.291-38.583 0-47.546 43.836-87.319 94.848-86.057 12.183 0.3013 12.183 0.3013-2.86 1.8574-29.494 3.0505-42.998 17.106-41.623 43.324 1.345 25.635 25.659 40.438 51.665 31.454 4.882-1.688 4.906-1.645 0.99896 1.816-4.718 4.181-31.214 3.329-39.174-1.26-16.935-9.764-23.502-41.564-12.037-58.272 6.195-9.0261 4.593-9.5469-6.356-2.0668-33.771 23.072-23.855 68.866 20.321 93.86 9.305 5.265 16.149 10.791 18.497 14.942 3.918 6.919 5.253 21.855 1.745 19.52-1.101-0.73401-2.001-3.739-2.001-6.681 0-9.061-8.161-18.101-24.205-26.812-31.33-17.012-44.2-43.64-34.814-72.03 3.744-11.325 3.081-11.368-5.464-0.35529-20.174 25.999-20.724 60.071-1.429 88.58 9.639 14.245 13.054 22.177 11.586 26.92-0.38501 1.243-2.786-2.638-5.337-8.628zm-302.74 602.06c2.994-6.13 2.919-8.204-0.201-5.536-1.376 1.176-5.857 3.3019-9.959 4.726-7.458 2.588-7.458 2.588-3.204 8.785 4.636 6.756 6.802 5.465 13.364-7.975zm-51.82-3.36c-5.819-5.076-7.231-4.789-8.763 1.785-2.682 11.511 0.45401 15.055 7.179 8.115 5.924-6.115 5.924-6.115 1.584-9.9zm86.025-5.032c3.361-5.364 7.564-12.783 9.342-16.486 3.232-6.733 3.232-6.733 5.692-0.427 2.743 7.028 8.489 13.043 10.447 10.936 0.69998-0.75403-0.22101-3.151-2.048-5.327-4.314-5.132-4.232-16.761 0.181-26.115 5.627-11.93 8.751-10.551 4.35 1.923-4.209 11.932-4.945 20.673-1.911 22.694 1.068 0.711 2.499-1.414 3.178-4.722 2.312-11.243 6.999-25.835 9.468-29.473 3.528-5.199 15.421 11.432 15.421 21.567 0 10.061 2.462 10.318 6.8 0.70898 3.765-8.336 3.765-8.336-2.738-16.315-7.286-8.94-7.712-21.723-0.952-28.598 3.179-3.235 3.325-3.101 2.106 1.914-3.537 14.536-3.488 16.397 0.55402 21.631 4.099 5.308 4.099 5.308 4.256-3.312 0.23901-13.093 4.949-23.66 6.95-15.591 1.742 7.021 9.848 14.512 15.703 14.512 3.214 0 3.598-0.57404 1.731-2.5861-5.073-5.465-2.428-16.213 6.995-28.412 14.64-18.956 14.65-28.149 0.040009-36.049-18.297-9.892-21.661-18.305-11.508-28.786 7.617-7.859 5.701-11.629-2.249-4.425-3.312 3.002-6.913 4.864-8.004 4.138-2.184-1.454 10.609-11.639 14.619-11.639 1.862 0 1.926-0.62598 0.25-2.433-1.677-1.806-3.651-1.251-7.673 2.155-7.437 6.302-10.612 5.781-4.873-0.79901 2.584-2.963 5.899-5.388 7.367-5.388 2.122 0 2.183-0.84094 0.29599-4.094-2.315-3.996-2.504-3.986-7.995 0.38702-3.092 2.464-6.306 3.74-7.143 2.839-0.836-0.90198 0.95801-3.584 3.987-5.961 6.756-5.303 5.227-9.586-1.681-4.709-5.854 4.132-9.565 1.776-4.048-2.57 2.08-1.638 4.779-3.366 5.999-3.839 1.22-0.47302 1.6-1.577 0.84601-2.452-0.75299-0.87598-3.43-0.039001-5.946 1.86-7.421 5.599-8.885 3.957-2.686-3.013 6.99-7.86 4.773-8.433-4.179-1.079-3.606 2.964-7.743 5.36-9.192 5.326-2.748-0.065979 7.221-10.756 13.642-14.626 2.033-1.226 3.076-2.898 2.319-3.714-0.759-0.81604-4.458 0.565-8.222 3.07-7.573 5.042-9.372 5.531-9.372 2.546 0-1.105 1.576-2.586 3.5-3.293 5.844-2.141 12.895-9.514 11.471-11.995-0.91098-1.586-2.933-1.205-6.327 1.189-7.229 5.104-7.557 2.772-0.621-4.386 6.322-6.525 8.452-12.632 2.48-7.105-9.712 8.984-11.594 6.578-2.227-2.849 8.7-8.754 5.889-10.058-4.39-2.036-13.031 10.17-16.154 7.86-3.427-2.536 6.166-5.038 11.745-11.304 12.397-13.924 0.83801-3.372 7.134-8.057 21.543-16.03 20.436-11.31 24.736-17.924 4.83-7.433-15.125 7.973-18.17 6.824-5.312-1.999 6.083-4.176 9.343-7.488 7.369-7.488-1.949 0-6.407 2.316-9.911 5.149-11.391 9.214-52.384 29.333-59.763 29.333-4.324 0 0.43298-2.916 14.108-8.647 15.673-6.57 46.086-26.268 42.528-27.546-1.305-0.46899-8.421 2.996-15.81 7.701-14.41 9.169-36.675 18.711-40.478 17.345-1.278-0.45801 2.934-3.13 9.357-5.938 13.558-5.927 36.134-19.001 37.788-21.884 1.705-2.971-0.168-2.423-7.487 2.19-9.788 6.168-26.699 12.505-43.426 16.276-16.119 3.634-21.971 2.876-7.906-1.024 22.159-6.144 29.866-9.111 45.715-17.597 12.601-6.747 15.882-9.312 12.669-9.902-2.385-0.43799-8.86 1.673-14.39 4.692-17.632 9.625-42.9 16.317-61.621 16.317-26.086 0-32.685 6.11-32.685 30.266 0 23.194 16.972 62.873 34.828 81.424 24.404 25.353 23.263 45.685-4.144 73.817-29.458 30.239-55.533 38.731-65.696 21.391-5.203-8.881-9.002-11.122-9.002-5.312 0 5.563-5.934 13.448-11.19 14.869-5.417 1.464-4.739 5.528 0.924 5.528 1.924 0 5.213 1.351 7.307 3 8.862 6.982-10.241 14.875-21.209 8.764-7.224-4.023-12.698-3.992-15.844 0.089966-2.033 2.64-1.914 3.233 0.64201 3.233 4.575 0 9.362 8.511 9.362 16.643 0 8.057 5.393 9.906 9.29 3.184 3.334-5.753 28.372-16.754 31.198-13.71 1.642 1.77 0.421 3.212-4.624 5.463-3.77 1.68-10.232 4.563-14.358 6.404-8.14 3.634-9.974 7.879-3.401 7.879 5.721 0 15.086 5.555 18.681 11.083 3.952 6.079 13.228 0.65399 13.228-7.735 0-5.741 9.37-19.112 12.113-17.284 0.95999 0.638-0.019012 4.277-2.176 8.088-4.137 7.311-5.048 13.472-2.265 15.326 3.949 2.63 17.104-4.17 20.672-10.685 8.656-15.805 15.641-14.42 21.781 4.318 5.122 15.627 5.303 15.654 13.79 2.109zm-71.856-2.669c-0.033005-5.114 0.87-11.175 2.01-13.468 2.612-5.258 6.932-5.611 4.861-0.39801-0.82501 2.074-1.726 6.34-2.001 9.48-0.993 11.281-4.802 14.711-4.87 4.386zm67.459 0.502c-4.329-4.664 5.066-35.381 10.82-35.381 2.705 0 1.969 3.542-2.385 11.49-2.237 4.086-4.711 11.496-5.5 16.468-0.78998 4.971-2.11 8.312-2.935 7.423zm-37.447-6.699c-0.067993-5.039 2.951-8.438 4.736-5.327 0.58899 1.029-0.22 3.713-1.799 5.962-2.78 3.953-2.876 3.932-2.937-0.63501zm-60.859-13.207c-0.65001-1.135 1.51-2.487 4.799-3.006 3.289-0.521 5.981-0.146 5.981 0.83502s-0.827 1.782-1.837 1.782-3.17 0.55102-4.798 1.226c-1.63 0.672-3.496 0.297-4.145-0.83698zm61.695-4.874c-0.737-1.281 1.012-4.973 3.882-8.2 2.872-3.228 5.221-7.942 5.221-10.473 0-8.22 3.736-7.346 4.378 1.023 0.623 8.126 0.623 8.126 5.036-0.49402 3.847-7.515 4.425-7.95 4.501-3.396 0.088989 5.225 0.088989 5.225 4.879 0.37701 2.994-3.03 5.28-3.996 6.095-2.575 2.036 3.55 9.121-2.231 9.121-7.444 0-5.218 5.07-13.468 7-11.39 0.73001 0.78595 0.30399 3.489-0.94699 6.006s-1.811 6.237-1.248 8.265c1.469 5.284-4.838 12.256-11.424 12.63-3.09 0.17596-7.309 1.967-9.377 3.982-2.068 2.016-4.653 3.069-5.747 2.341-1.095-0.73004-3.427 0.87396-5.185 3.559-2.542 3.889-3.545 4.28-4.915 1.916-2.015-3.481-6.168-1.396-6.168 3.098 0 3.645-3.179 4.128-5.102 0.77496zm-9.903-6.29c0.681-1.186 2.136-2.156 3.237-2.156s1.445 0.96997 0.765 2.156c-0.681 1.185-2.138 2.154-3.237 2.154-1.101 0-1.445-0.96899-0.765-2.154zm-4.001-5.45c9.986-3.876 11.009-3.854 6.12 0.13-2.136 1.739-6.188 3.122-9.004 3.069-4.24-0.076965-3.744-0.62695 2.884-3.199zm-8.002-5.387c4.401-0.92297 10.253-2.327 13.003-3.124 4.818-1.393 4.858-1.32 1.119 1.946-2.405 2.101-7.358 3.291-13.005 3.124-9.121-0.27002-9.121-0.27002-1.117-1.946zm-16.8-8.147c-1.355-2.729-2.107-6.118-1.671-7.532 0.452-1.456 1.863-0.41901 3.261 2.394 1.356 2.73 2.108 6.119 1.67 7.533-0.45 1.455-1.862 0.41901-3.26-2.395zm89.821-3.469c0-8.685 9.345-14.097 13.087-7.576 2.02 3.521-0.63199 5.097-3.806 2.26-2.272-2.032-3.064-1.465-4.087 2.925-1.347 5.778-5.194 7.548-5.194 2.391zm19.338-0.536c-2.776-2.993-1.095-7.916 6.169-18.068 9.143-12.777 9.958-12.951 9.958-2.125 0 7.404-0.56403 8.483-4.228 8.082-3.205-0.34998-4.692 1.234-6.144 6.544-1.91 6.994-3.238 8.277-5.755 5.567zm49.529-8.147c-1.893-8.132 4.603-27.054 9.289-27.054 0.90302 0-0.198 4.482-2.447 9.961-2.593 6.31-3.669 12.233-2.938 16.164 1.396 7.522-2.169 8.373-3.904 0.92902zm-23.594-16.507c2.178-4.019 5.84-8.316 8.138-9.549 10.646-5.718 15.366-18.24 6.877-18.24-5.898 0-14.275-8.314-14.275-14.166 0-6.574 3.264-6.821 5.158-0.39099 1.704 5.787 6.513 10.084 11.39 10.178 12.551 0.24304 7.772 20.441-7.276 30.745-14.104 9.658-14.509 9.716-10.012 1.423zm-44.322-14.026c7.953-20.355 8.061-25.563 0.87601-42.608-4.216-10-4.76-14.26-1.827-14.26 1.101 0 2.001 1.22 2.001 2.713 0 1.49 2.249 7.265 5.001 12.832 6.02 12.181 6.514 25.667 1.321 36.099-3.999 8.032-10.182 12.413-7.372 5.224zm13.08-10.639c0.045013-6.768 2.285-13.9 4.367-13.9 1.12 0 1.352 2.929 0.55499 7.004-1.633 8.356-4.961 13.018-4.922 6.8961zm5.974-2.998c0-1.115 0.89999-2.626 2.001-3.36 1.101-0.732 2.002 0.17999 2.002 2.029 0 1.848-0.901 3.36-2.002 3.36s-2.001-0.91199-2.001-2.029zm7.002-119.97c7.938-6.601 21.215-14.273 22.431-12.961 1.462 1.573 2.216 0.893-10.602 9.551-10.55 7.124-19.344 9.66-11.829 3.41zm-1-9.034c0-2.356 31.519-19.84 35.673-19.788 1.836 0.02301-5.109 4.871-15.433 10.775-20.25 11.58-20.24 11.576-20.24 9.013zm-160.54 223.57c6.358 3.12 7.749 1.596 4.833-5.299-3.525-8.33-8.236-9.139-13.663-2.344-5.902 7.394-6.101 10.907-0.431 7.637 3.181-1.833 5.518-1.831 9.261 0.006042zm285.36-5.442c2.675-7.509-4.734-10.024-11.138-3.781-5.364 5.229-4.505 7.21 3.13 7.21 4.359 0 7.224-1.228 8.008-3.429zm-253.31-42.21c5.325-5.737-6.873-10.869-16.437-6.915-2.492 1.028-1.743 2.176 3.336 5.124 8.131 4.716 10.133 4.988 13.101 1.791zm-132.03-139.76c3.9415-8.582 3.9426-8.699 0.091702-10.919-3.5781-2.063-15.661-0.83698-15.661 1.588 0 3.05 9.2235 18.006 11.104 18.006 0.2647 0 2.2741-3.903 4.4654-8.675zm39.388 0.176c3.5094-7.31 1.5146-9.875-6.0848-7.819-4.7655 1.289-4.8217 1.524-1.8354 7.746 3.8035 7.923 4.1505 7.927 7.9202 0.072998zm-63.796-38.915c3.8528 0 3.5959-7.415-0.3802-10.971-2.7335-2.442-3.636-2.258-6.0017 1.226-3.9123 5.764-3.6729 12.728 0.3802 11.053 1.7404-0.72003 4.4413-1.308 6.0017-1.308zm362.94-36.304c0-6.057-18.317-14.246-28.891-12.919-9.401 1.182-8.265 5.444 1.887 7.084 5.049 0.81601 12.516 2.804 16.592 4.417 9.012 3.569 10.412 3.759 10.412 1.418zm-344.32-16.785c-1.2487-1.62-5.4441-2.946-9.3232-2.946-7.0529 0-7.0529 0-0.2551 5.059 7.3269 5.454 14.234 3.931 9.5783-2.113zm204.56-79.994c15.509-18.271 25.324-37.956 31.422-63.021 5.024-20.648 9.475-20.273 10.737 0.90802 1.141 19.171 4.404 25.278 27.494 51.458 20.551 23.303 26.362 15.244 15.09-20.93-5.011-16.085-6.966-42.231-3.157-42.231 1.016 0 2.923 3.636 4.241 8.082 10.881 36.743 25.924 45.268 25.924 14.689 0-16.204 1.373-17.403 7.002-6.116 5.125 10.273 36.123 28.126 40.551 23.353 2.649-2.853-5.634-18.835-15.957-30.788-13.678-15.84-17.592-24.414-17.592-38.547 0-6.113-1.111-11.009-2.828-12.461-2.072-1.753-2.539-5.421-1.747-13.708 1.67-17.451 5.933-13.17 5.099 5.12-0.203 4.468-0.088013 4.45 4.674-0.67801 2.686-2.892 4.357-6.172 3.718-7.288-1.425-2.483 3.267-17.089 5.49-17.089 2.415 0 1.918 10.309-0.57599 11.968-1.197 0.797-1.731 3.28-1.188 5.517 0.54401 2.236 0.25601 4.067-0.63898 4.067-1.673 0-1.331 2.712 2.44 19.395 4.826 21.359 16.351 36.356 34.634 45.068 12.284 5.854 13.123 5.711 10.686-1.824-3.09-9.551-1.152-39.24 4.348-66.562 4.58-22.765 4.68-24.537 1.492-26.458-4.846-2.922-2.401-9.036 2.486-6.218 10.742 6.193 39.432-0.84099 47.816-11.726 2.275-2.953 1.916-3.4-2.726-3.4-23.306 0-36.297-30.078-37.086-85.871-0.045013-3.199-1.537-5.464-4.072-6.178-7.667-2.16-3.907-4.318 9.661-5.544 17.606-1.59 32.084-7.56 19-7.836-9.024-0.19-20.659-8.452-20.659-14.67 0-2.457 1.324-1.909 5.03 2.083 6.907 7.44 30.733 11.608 33.982 5.946 0.681-1.186 0.314-2.156-0.81299-2.156-5.929 0-16.144-13.836-20.356-27.576-3.237-10.552-6.789-17.008-13.172-23.931-10.544-11.435-12.103-10.713-6.472 2.9985 5.23 12.736 4.582 30.808-1.361 38.003-8.348 10.107-32.848 17.139-32.848 9.428 0-2.025 1.899-3.233 5.082-3.233 22.205 0 32.107-21.397 20.935-45.239-8.473-18.083-11.07-19.061-28.114-10.598-13.486 6.6961-25.303 5.3034-20.85-2.4574 0.53101-0.9256-0.16598-2.1741-1.548-2.7745-1.381-0.6003 0.974-1.1681 5.235-1.2616 6.997-0.1538 7.481 0.1764 5.001 3.413-3.244 4.2336-2.952 4.1166 15.708-6.2938 9.736-5.4326 15.447-10.138 17.504-14.423 4.665-9.7152 3.769-9.9275-5.17-1.2271-8.815 8.5794-18.955 14.05-26.042 14.05-2.831 0-0.18298-2.2618 7.471-6.3822 11.613-6.2515 26.657-20.347 24.359-22.822-0.638-0.68826-5.978 1.6235-11.867 5.1372-7.123 4.2503-19.408 8.3497-36.713 12.248-32.987 7.4324-39.577 10.326-47.234 20.741-7.527 10.238-13.102 13.504-28.787 16.866-17.856 3.8272-27.008 6.9726-27.008 9.2807 0 1.8544 5.919 1.5152 14.003-0.8029 1.689-0.4842 3.001 0.5531 3.001 2.3723 0 2.048-3.116 3.9768-8.503 5.2631-10.125 2.418-10.834 6.0829-4.001 20.682 5.027 10.738 10.025 11.644 41.586 7.545 18.807-2.444 26.767 6.664 25.581 29.27-1.143 21.813-10.041 30.575-41.159 40.538-14.027 4.492-14.504 4.868-14.504 11.44 0 4.431-1.863 8.89-5.355 12.817-7.827 8.801-4.486 9.68 11.351 2.987 11-4.649 14.291-7.074 15.264-11.249 1.239-5.321 1.239-5.321 5.624-0.883 5.561 5.628 13.97 5.684 19.129 0.127 5.656-6.094 4.97-10.637-1.999-13.254-7.662-2.877-7.608-3.172 2.259-12.271 27.797-25.631 12.532-75.863-19.112-62.901-8.557 3.504-31.162 5.329-31.162 2.515 0-1.349 1.86-2.453 4.134-2.453 2.272 0 12.148-2.052 21.944-4.56 40.373-10.337 63.9 38.553 33.219 69.031-5.149 5.114-5.17 5.25-1.258 8.202 14.366 10.841-10.096 33.498-26.161 24.234-2.57-1.48-3.87-1.5-3.87-0.055008 0 1.197-2.927 3.762-6.502 5.702-3.575 1.939-9.653 6.726-13.504 10.638-11.896 12.083-28.81 16.328-73.022 18.326-38.129 1.724-56.505 5.075-66.732 12.166-8.553 5.931 15.242 25.64 42.419 35.136 7.695 2.687 7.695 2.687 0.71999 10.533-7.951 8.946-12.278 17.446-14.419 28.322-3.312 16.817-16.785 34.847-33.279 44.538-6.73 3.954-6.73 3.954 6.643 4.588 21.961 1.042 44.512-6.701 57.147-19.618 6.501-6.647 6.501-6.647 6.501 4.27 0 10.808 5.143 47.031 7.182 50.585 1.756 3.063 3.829 2.132 9.105-4.082zm-2.219-11.645c-0.30701-17.254 16.533-73.298 23.863-79.413 0.71201-0.59201 3.373-4.766 5.917-9.273 2.542-4.507 5.093-7.689 5.666-7.07 0.574 0.61603-0.479 3.624-2.337 6.679-6.021 9.902-18.93 46.373-23.319 65.883-4.142 18.416-9.642 31.448-9.79 23.194zm76.262-7.132c-15.854-25.083-21.09-79.437-10.534-109.35 2.675-7.582 7.418-10.821 5.382-3.678-10.948 38.413-8.687 74.744 6.719 107.96 6.458 13.923 5.661 16.503-1.567 5.069zm74.703-20.999c-13.16-7.514-33.865-39.012-35.922-54.645-0.45798-3.485-1.45-10.868-2.204-16.407-1.408-10.348 0.211-25.505 2.722-25.468 0.776 0.011017 1.569 7.042 1.762 15.625 0.34702 15.302 2.916 28.588 7.187 37.157 1.183 2.371 4.413 8.999 7.181 14.731 2.767 5.733 9.543 14.673 15.056 19.87 9.955 9.381 11.855 13.499 4.218 9.137zm-48.154-6.35c-4.231-8.813-6.613-45.656-3.103-47.993 1.585-1.055 2.267 2.548 2.288 12.093 0.016022 7.479 1.387 19.8 3.045 27.38 3.474 15.874 2.706 18.805-2.23 8.52zm-154.89 3.492c0-0.90201 3.975-6.218 8.835-11.815 4.859-5.595 11.288-15.394 14.285-21.774 6.636-14.122 10.077-17.505 27.428-26.951 13.305-7.243 16.495-9.673 31.888-24.286 8.659-8.219 12.859-7.493 5.495 0.95102-8.295 9.514-24.411 21.807-39.052 29.789-13.242 7.222-14.637 8.687-21.967 23.092-9.599 18.865-26.912 38.804-26.912 30.994zm228.36-31.182c-14.247-24.854-19.707-86.249-7.21-81.082 2.071 0.85399 2.917-0.339 2.917-4.115 0-6.672 3.539-6.977 5.062-0.435 1.731 7.427-3.884 20.706-6.569 15.535-2.984-5.742-5.265 10.975-3.443 25.244 1.579 12.363 9.674 39.519 13.11 43.98 1.221 1.586 1.825 4.128 1.34 5.649-0.51999 1.632-2.66-0.32901-5.207-4.776zm-106.32-38.53c0-10.162 5.929-23.573 8.356-18.901 1.407 2.707 1.066 5.261-1.195 8.979-1.738 2.858-3.16 7.656-3.16 10.66 0 3.005-0.89999 5.465-2.001 5.465-1.1 0-2-2.791-2-6.203zm12.003 0.429c0-7.478 4.32-20.333 6.564-19.527 2.668 0.95801 2.64 1.852-0.427 13.986-3.073 12.158-6.137 14.924-6.137 5.541zm-34.01-2.584c0-3.411 1.351-7.409 3.002-8.884 1.648-1.475 2.999-4.988 2.999-7.808 0-2.818 0.89999-5.124 2.001-5.124 3.157 0 2.33 14.265-0.99899 17.242-1.651 1.475-3.002 4.503-3.002 6.729s-0.90002 4.046-2.001 4.046c-1.099 0-2-2.789-2-6.201zm47.235 2.812c-0.66299-1.863-0.13599-5.499 1.174-8.081 1.309-2.581 2.137-7.36 1.843-10.62-0.68298-7.51 3.254-7.783 4.987-0.34702 2.364 10.145-4.965 27.584-8.004 19.048zm12.116 1.952c-1.769-1.904-1.453-15.778 0.48001-21.105 0.98099-2.7 1.576 0.60498 1.651 9.16 0.12201 13.926 0.056 14.302-2.131 11.945zm-75.276-5.394c0.13202-4.775 17.932-24.45 17.892-19.778-0.017975 2.189-4.069 8.179-9.002 13.313-4.933 5.132-8.934 8.042-8.89 6.465zm-14.021-12.168c-0.13098-5.892 4.162-10.913 11.424-13.361 4.136-1.393 9.505-5.068 11.932-8.17 5.456-6.971 8.148-4.982 3.531 2.609-1.975 3.245-6.559 6.477-11.026 7.772-4.315 1.252-9.422 4.783-11.722 8.103-2.242 3.235-4.104 4.607-4.139 3.047zm128.93-6.946c-1.443-2.515 5.218-21.448 7.551-21.46 2.264-0.011002 1.8 8.488-0.90298 16.541-2.476 7.377-4.414 8.812-6.648 4.919zm-173-8.589c-6.051-0.992-16.63-2.498-23.507-3.345-6.877-0.84399-12.504-2.365-12.504-3.381 0-2.574 15.462-2.281 24.652 0.47 19.729 5.9 51.905 3.335 68.897-5.496 13.37-6.948 17.899-6.919 7.481 0.048004-16.406 10.972-41.726 15.531-65.019 11.704zm206.67-12.34c0.11499-4.446-0.56699-9.911-1.52-12.149-2.88-6.773 3.499-2.99 6.629 3.931 2.052 4.538 2.185 7.273 0.543 11.156-3.225 7.626-5.891 6.239-5.652-2.938zm-111.31-10.597c-3.078-3.316-0.85001-9.68 6.669-19.037 5.154-6.416 8.002-8.672 8.002-6.343 0 1.99-2.63 6.845-5.842 10.789-3.91 4.794-5.488 8.635-4.769 11.599 1.035 4.26-1.291 5.974-4.06 2.992zm16.171-1.95c-2.912-3.186-1.441-10.074 3.502-16.403 2.75-3.521 5.001-7.841 5.001-9.598 0-1.756 0.901-2.595 2.002-1.862 3.275 2.18 2.299 6.828-2.804 13.362-2.642 3.383-5.118 8.4-5.502 11.146-0.384 2.747-1.373 4.257-2.199 3.355zm106.53-4.155c-3.216-3.69-3.801-5.368-1.85-5.322 3.026 0.072998 11.263 10.708 8.294 10.708-0.95999 0-3.86-2.423-6.444-5.386zm-96.027-1.822c0-2.779 1.799-6.81 4.001-8.955 2.2-2.146 4.001-6.119 4.001-8.827 0-2.711 0.89999-5.527 1.999-6.259 3.752-2.497 2.077 13.323-1.999 18.907-2.201 3.013-4.001 6.538-4.001 7.833s-0.901 2.354-2.002 2.354c-1.099 0-1.999-2.273-1.999-5.053zm104.03-0.335c-2.584-2.964-3.799-5.387-2.698-5.387s4.115 2.423 6.699 5.387c2.584 2.963 3.798 5.388 2.699 5.388-1.101 0-4.116-2.425-6.7-5.388zm-90.027 0.419c0-1.547 2.307-6.154 5.127-10.237 4.249-6.154 4.921-8.932 3.924-16.249-0.884-6.502-0.392-9.55 1.864-11.567 2.216-1.982 2.731-4.976 1.86-10.838-0.66101-4.465-0.323-8.683 0.75699-9.402 3.165-2.109 4.622 16.302 1.679 21.236-1.445 2.422-2.18 7.814-1.679 12.306 0.68802 6.166-0.41498 10.216-4.819 17.702-5.774 9.815-8.713 12.191-8.713 7.049zm99.03-1.155c-10.12-6.666-16.719-21.039-13.634-29.697 2.129-5.975 4.631-2.739 4.631 5.982 0 10.452 11.549 24.525 21.445 26.135 5.564 0.90399 5.564 0.90399-0.43799 1.218-3.302 0.174-8.702-1.464-12.004-3.638zm-80.16-9.501c0.724-3.852 1.999-12.099 2.833-18.325 0.83499-6.227 2.595-12.482 3.911-13.901 1.317-1.419 2.396-4.753 2.396-7.409 0-2.657 0.90002-5.429 1.999-6.163 3.263-2.172 2.317 12.564-1.148 17.894-2.12 3.26-2.715 6.967-1.823 11.342 0.888 4.354 0.27499 8.225-1.853 11.725-1.747 2.873-3.178 6.714-3.178 8.534s-1.002 3.308-2.226 3.308c-1.45 0-1.768-2.446-0.91101-7.005zm13.856-5.387c0.68201-4.446 1.251-10.122 1.263-12.612 0.013-2.492 2.801-7.662 6.2-11.493 4.683-5.28 5.882-8.222 4.962-12.172-1.324-5.682 2.22-7.369 4.143-1.973 1.811 5.084-0.716 12.719-6.393 19.319-3.513 4.084-4.851 7.539-4.105 10.608 1.203 4.944-2.666 16.405-5.534 16.405-0.97699 0-1.217-3.638-0.53601-8.082zm14.652 2.366c-2.34-2.521-1.49-17.541 1.16-20.531 4.657-5.255 7.393-14.624 6.181-21.156-1.592-8.572 2.552-8.584 4.299-0.011002 1.773 8.698-0.36801 18.111-5.191 22.814-2.745 2.676-3.633 5.559-2.891 9.383 1.124 5.781-1.215 12.026-3.558 9.501zm48.651-1.827c-1.389-1.805-1.605-3.234-0.48999-3.234 1.101 0 3.121 1.456 4.491 3.234 1.389 1.802 1.606 3.233 0.491 3.233-1.102 0-3.122-1.456-4.492-3.233zm-36.011-8.494c0-2.895 0.89999-5.86 2.001-6.594 1.1-0.73099 2-4.103 2-7.49 0-3.386 1.075-6.543 2.385-7.014 1.438-0.51799 2.386-5.297 2.386-12.034 0-11.082 1.68-14.331 4.018-7.768 2.097 5.885 1.328 14.997-1.631 19.348-1.576 2.314-2.393 6.645-1.829 9.692 0.647 3.496-0.13998 6.544-2.155 8.345-1.745 1.561-3.174 4.174-3.174 5.806 0 1.634-0.89999 2.969-2 2.969-1.101 0-2.001-2.368-2.001-5.26zm14.004-8.069c0-2.588 1.911-8.959 4.248-14.156 3.027-6.739 3.943-11.878 3.189-17.922-1.202-9.658 0.82001-11.08 4.246-2.983 3.221 7.613 2.901 17.172-0.67899 20.373-1.651 1.475-3.001 3.825-3.001 5.222 0 3.758-4.767 14.139-6.502 14.158-0.82498 0.009003-1.501-2.102-1.501-4.692zm-41.359-41.824c-0.67001-1.886 0.14499-6.511 1.811-10.279 2.466-5.568 2.632-8.963 0.88998-18.128-1.619-8.509-1.556-11.911 0.25201-13.859 1.861-2.005 2.395-1.159 2.395 3.791 0 3.504 0.84802 9.556 1.885 13.448 3.21 12.058-3.535 35.403-7.233 25.027zm10.4-7.886c0.83402-2.667 1.516-7.759 1.516-11.315s-0.68198-8.647-1.516-11.314c-2.6-8.314 1.774-5.258 5.255 3.671 3.071 7.88 3.071 9.01 0 16.072-3.643 8.375-7.661 10.582-5.255 2.886zm10.733 2.282c-0.54498-1.643-0.97598-25.45-0.45898-25.45 2.375 0 6.54 13.867 5.501 18.321-1.076 4.623-4.343 9.24-5.042 7.129zm-29.788-7.004c0-1.708 0.94299-3.734 2.096-4.501 1.29-0.858 1.588-5.06 0.77298-10.903-0.815-5.864-0.55499-9.508 0.68201-9.508 3.324 0 4.944 15.067 2.345 21.824-2.516 6.546-5.896 8.316-5.896 3.088zm-7.073-3.61c0.84399-2.826 1.446-9.017 1.336-13.758-0.199-8.621-0.199-8.621 2.979-2.395 3.561 6.978 1.808 18.54-3.076 20.295-2.108 0.75601-2.405-0.241-1.239-4.142zm47.108-0.797c-1.818-2.36-1.964-5.904-0.55402-13.47 1.734-9.308 2.092-9.798 3.828-5.242 1.914 5.025 1.914 5.025 4.266-0.539 2.694-6.369 4.879-6.956 8.482-2.279 3.432 4.456 0.892 6.682-3.368 2.949-2.98-2.613-3.27-2.558-2.233 0.42699 1.431 4.123-1.3 9.482-4.87 9.556-1.551 0.03299-2.424 2.388-2.197 5.927 0.43298 6.757 0.036987 7.072-3.354 2.671zm-55.126-35.742c-0.728-1.269-3.256-3.147-5.62-4.174-4.101-1.7829-4.066-1.8737 0.806-2.004 4.948-0.1327 9.902 3.249 9.902 6.76 0 2.514-3.544 2.109-5.088-0.582zm4.866-5.5244c-3.062-3.976-0.715-6.4668 2.981-3.1626 2.216 1.9817 3.065 1.9299 3.798-0.2318 0.63702-1.8776 1.646-2.0822 3.096-0.6287 1.497 1.4999 0.67902 2.9027-2.687 4.6141-3.832 1.9474-5.326 1.8244-7.188-0.591zm-53.636-0.3544c-0.087006-1.5383-2.541-5.1753-5.451-8.082-2.912-2.9067-4.42-5.2851-3.35-5.2851 3.353 0 11.123 10.33 10.015 13.316-0.84601 2.2809-1.087 2.2909-1.214 0.051102zm105.87-0.575c0-1.2618 2.593-4.6449 5.762-7.5177 5.68-5.1476 9.531-13.895 6.118-13.895-0.96399 0-1.192-1.5675-0.51001-3.4835 1.047-2.9408 0.59-3.1086-2.933-1.0777-5.186 2.9898-13.109 3.1636-11.438 0.2508 0.681-1.1854-0.22-2.1551-1.999-2.1551-1.782 0-2.682-0.97-2.002-2.1554 0.681-1.1852-0.16702-2.155-1.883-2.155-6.051 0-3.008-4.1616 6.28-8.5872 14.534-6.9258 23.2 1.8861 22.153 22.523-0.629 12.436-19.548 30.1-19.548 18.253zm-100.03-16.659c0-1.139 1.455-3.3712 3.231-4.9602 2.797-2.4997 3.134-2.3414 2.501 1.1739-0.75198 4.189-5.732 7.4775-5.732 3.7863zm9.337-4.0355c-2.996-3.2276-1.47-7.8329 1.666-5.0288 1.651 1.4757 3.001 3.534 3.001 4.5742 0 2.2318-2.767 2.5014-4.667 0.4546zm7.881-1.9723c-1.877-5.2721-1.469-5.9688 1.787-3.0565 3.326 2.9733 3.982 6.4656 1.215 6.4656-0.983 0-2.333-1.5342-3.002-3.4091zm6.79-3.5149c0-4.1272 8.499-6.3079 14.372-3.6872 5.04 2.2489 6.884 2.1237 11.442-0.7771 4.105-2.6123 7.85-3.0824 15.316-1.9221 9.884 1.5357 9.884 1.5357 3.27 4.5014-4.882 2.1899-7.199 2.334-8.855 0.5506-1.654-1.7833-3.015-1.7237-5.198 0.2277-3.136 2.801-30.347 3.7935-30.347 1.1067zm13.376-8.4114c-2.087-1.3081-8.032-1.7244-14.004-0.9804-8.769 1.0927-9.796 0.8706-6.638-1.4328 10.37-7.5616 12.35-10.122 9.429-12.192-4.276-3.032 9.014-10.99 18.371-11 5.925-0.006401 9.125 1.6405 15.004 7.7225 6.303 6.5181 6.768 7.5637 2.972 6.6672-2.475-0.5847-4.501-0.1401-4.501 0.9882 0 7.9579-13.542 14.67-20.633 10.227zm14.699-8.5096c2.956-5.9477-0.68701-10.638-8.264-10.638-6.421 0-14.235 11.511-9.279 13.67 6.482 2.8238 15.4 1.2829 17.543-3.0316zm-13.401-1.0846c-0.66101-1.8577-0.18301-4.4763 1.065-5.8192 1.687-1.8182 2.273-1.6437 2.296 0.6837 0.026001 2.6682 0.30701 2.6552 1.918-0.0896 1.444-2.4616 2.437-2.6217 4.236-0.6837 3.31 3.5678 0.73502 9.2866-4.184 9.2866-2.27 0-4.668-1.5201-5.331-3.3778zm-187.33 289.71c-1.639-2.793-3.584-7.26-4.322-9.928-1.942-7.005 2.507-6.115 5.374 1.078 3.115 7.808 2.97 7.647 5.402 6.029 1.354-0.90302 0.55299-3.686-2.225-7.734-5.084-7.409-2.973-11.861 2.302-4.852 1.968 2.617 4.034 4.268 4.589 3.671 0.883-0.953-13.033-25.38-18.615-32.675-1.462-1.911-1.312-2.668 0.519-2.607 1.418 0.048004 6.63 5.944 11.582 13.103 6.062 8.766 9.22 11.871 9.669 9.509 0.832-4.398-14.691-22.893-22.127-26.366-3.05-1.425-5.547-3.607-5.547-4.851 0-1.241-2.304-2.258-5.12-2.258-2.903 0-4.584-0.93301-3.882-2.155 2.059-3.592 10.162-2.418 13.88 2.009 1.925 2.291 4.562 3.726 5.858 3.192 1.297-0.53699 3.841 1.71 5.652 4.994 7.286 13.208 14.648 18.604 17.189 12.598 1.942-4.593 1.706-5.509-1.712-6.679-4.149-1.418-11.143-11.139-9.381-13.038 0.561-0.603 3.895 1.508 7.409 4.694 5.678 5.147 6.723 5.432 9.39 2.561 3.46-3.73-18.311-14.174-24.343-11.68-1.731 0.715-5.223-0.16602-7.762-1.957-2.537-1.791-5.917-2.719-7.51-2.06-5.611 2.32-17.037-4.473-12.207-7.258 3.202-1.844 4.662-1.662 6.571 0.81598 2.647 3.435 11.072 4.341 12.774 1.374 2.548-4.442-12.383-16.059-18.85-14.666-4.529 0.97699-6.054 0.607-5.466-1.32 0.45-1.471 2.999-3 5.664-3.396 8.051-1.199 8.661-3.732 3.927-16.296-6.126-16.261-3.809-20.499 2.712-4.961 3.052 7.273 6.131 11.918 7.358 11.1 1.398-0.929 1.119-2.605-0.82501-4.961-2.701-3.272-9.328-24.014-9.328-29.195 0-4.939 5.51 4.708 7.873 13.784 2.755 10.582 7.197 17.24 11.502 17.24 2.024 0 1.687-1.563-1.276-5.926-4.067-5.987-12.099-28.828-12.099-34.408 0-6.195 3.822-0.136 8.845 14.024 6.451 18.19 10.337 24.362 14.305 22.723 2.692-1.115 2.697-1.654 0.037994-4.818-3.966-4.72-12.462-25.294-14.214-34.414-2.327-12.129 3.01-7.055 7.908 7.515 5.631 16.758 12.604 28.839 16.641 28.839 2.626 0 2.455-0.84999-0.972-4.848-3.39-3.954-10.544-19.121-10.544-22.355 0-3.18 3.94 0.26601 5.845 5.113 2.265 5.762 13.042 19.935 15.158 19.935 0.58 0-1.137-3.741-3.818-8.313-2.678-4.573-11.839-22.757-20.356-40.41-12.072-25.025-18.277-35.255-28.162-46.435-18.201-20.581-18.631-41.595-1.028-50.146 6.458-3.137 12.356-10.468 12.356-15.359 0-0.5367-2.562-0.9762-5.692-0.9762-3.148 0-7.308-1.9232-9.306-4.3026-4.402-5.2391-7.429-3.1724-13.197 9.0077-5.571 11.764-6.346 10.433-5.536-9.5032 0.804-19.76-2.103-23.751-10.961-15.056-2.377 2.3338-6.779 5.5897-9.781 7.2354-5.459 2.992-5.459 2.992 0.491 12.654 6.026 9.7853 7.62 18.006 3.963 20.441-1.102 0.734-2.847-1.0542-3.877-3.9739-2.511-7.1139-6.122-9.2958-6.122-3.699 0 6.7268-2.1954 5.2958-11.63-7.579-8.9671-12.237-12.377-13.243-12.377-3.6509 0 3.0963-1.4387 7.3422-3.1969 9.4352-4.1626 4.9552-2.5667 7.3528 9.1531 13.751 5.3209 2.9046 10.085 6.5234 10.588 8.0414 0.5024 1.518 1.7113 1.952 2.6865 0.965 0.9981-1.01-1.0817-4.5423-4.7592-8.0821-3.7346-3.5946-5.3096-6.2873-3.6776-6.2873 3.2134 0 13.976 12.827 12.289 14.645-2.1104 2.273-26.153 2.241-31.717-0.042999-7.7604-3.185-14.489 2.845-7.6041 6.815 4.6425 2.677 5.8359 12.634 2.0082 16.757-2.2526 2.427-0.8902 7.085 2.0723 7.085 0.8859 0 4.1061-3.88 7.156-8.621 6.269-9.745 11.798-11.034 19.284-4.496 5.9022 5.155 3.6325 8.337-2.5951 3.638-8.0291-6.058-8.3795-3.724-0.7976 5.317 8.5609 10.208 9.399 20.147 1.7338 20.564-2.4097 0.131-7.2052 2.798-10.657 5.927-4.1077 3.724-8.6411 5.687-13.124 5.687-7.4628 0-8.6458 2.177-3.6238 6.667 3.8778 3.467 14.896 2.758 22.363-1.437 6.3223-3.553 12.424-4.004 12.424-0.918 0 1.184-2.0785 2.156-4.619 2.156s-6.3667 1.423-8.5024 3.162c-2.136 1.741-6.134 3.226-8.8849 3.299-8.4694 0.228-0.3641 3.603 13.004 5.417 11.394 1.544 11.699 1.736 6.0018 3.776-11.392 4.078-19.006 15.108-19.006 27.532 0 6.766 0 6.766 6.1553 1.186 7.3452-6.658 18.189-7.392 28.787-1.948 7.975 4.097 8.826 6.252 3.224 8.168-4.298 1.469-19.026 18.16-17.487 19.817 0.5415 0.582 2.8029 0.011002 5.0251-1.27 6.339-3.653 11.51-2.772 17.944 3.059 3.269 2.963 8.514 5.454 11.656 5.534 5.541 0.142 5.578 0.217 1.234 2.473-3.648 1.896-6.387 1.26-14.779-3.429-6.081-3.398-11.859-5.226-14.102-4.457-8.0102 2.737 20.861 22.259 33.36 22.556 6.002 0.143 6.002 0.143-1.339 4.321-7.101 4.04-15.666 14.43-15.666 19.005 0 1.333 2.218 0.98599 5.502-0.858 6.322-3.554 19.678-4.152 21.506-0.96399 0.759 1.324-2.519 2.155-8.502 2.155-9.281 0-19.13 4.492-15.308 6.982 0.992 0.64801 8.433 3.293 16.536 5.883 14.732 4.707 14.732 4.707 9.508 10.58-8.362 9.403-0.752 15.353 8.133 6.36 5.594-5.661 8.75-3.563 3.695 2.455-5.227 6.222-10.591 7.36-16.161 3.429-4.375-3.088-4.903-3.101-4.903-0.12399 0 3.716 7.674 7.539 15.135 7.539 5.484 0 10.185 4.588 15.46 15.086 2.506 4.986 4.223 6.459 5.688 4.879 1.468-1.581 1.203-3.795-0.87701-7.343zm-33.405-96.674c3.953-2.752 10.581-2.752 9.002 0-0.67999 1.184-3.659 2.14-6.62 2.121-4.21-0.025009-4.729-0.48702-2.382-2.121zm-1.051-8.71c-0.707-1.231-3.011-1.653-5.119-0.931-4.594 1.571-5.252-2.839-0.705-4.72 4.018-1.66 13.49 2.927 11.871 5.749-1.598 2.785-4.42 2.739-6.047-0.098007zm-8.894-12.761c-1.619-1.102-2.386-2.602-1.705-3.335 1.554-1.675 15.651 1.059 15.651 3.036 0 2.289-10.68 2.519-13.946 0.299zm4.943-10.178c-12.593-1.182-17.79-2.85-15.743-5.055 2.315-2.494 22.136 0.703 25.266 4.074 1.255 1.351 1.426 2.293 0.381 2.094-1.045-0.19899-5.502-0.69899-9.904-1.113zm-57.016-6.812c0-6.455 15.456-12.807 24.933-10.244 8.597 2.325 5.637 4.522-6.0889 4.522-8.3239 0-11.816 0.95999-13.724 3.772-2.7334 4.027-5.1197 4.937-5.1197 1.95zm46.501-8.231c-2.99-1.299-1.321-5.032 2.249-5.032 1.375 0 4.248 1.423 6.384 3.162 4.11 3.351-2.119 4.699-8.633 1.87zm6.514-6.486c-10.623-1.427-15.004-2.891-15.004-5.013 0-3 18.413-0.060989 21.935 3.502 1.612 1.63 2.062 2.819 1 2.641-1.061-0.17799-4.63-0.686-7.931-1.13zm-19.963-15.716c-2.344-4.084-0.265-4.551 11.155-2.509 5.945 1.063 8.896 2.046 6.558 2.184-2.339 0.14-6.956 0.83501-10.261 1.548-3.648 0.785-6.576 0.306-7.452-1.223zm9.96-10.169c-11.965-1.123-17.005-2.659-17.005-5.186 0-2.142 17.532-1.086 26.508 1.596 3.969 1.186 4.836 5.26 1 4.703-1.375-0.2-6.101-0.7-10.503-1.113zm-17.872-15.546c-6.083-2.566-0.145-5.132 7.418-3.206 3.549 0.90399 7.579 1.419 8.954 1.143 1.375-0.27499 2.501 0.511 2.501 1.749 0 2.559-13.037 2.776-18.873 0.314zm15.272-28.668c-2.766-2.98-3.282-16.811-0.628-16.811 0.976 0 2.199 2.667 2.718 5.927 0.52 3.26 1.618 7.624 2.442 9.698 1.714 4.319-0.972 5.021-4.532 1.186zm5.501-6.236c-2.443-4.919-1.011-14.885 2.139-14.885 1.079 0 1.962 1.997 1.962 4.437 0 2.441 0.901 3.838 2.001 3.106 2.284-1.521 2.456 0.105 0.73999 7.004-1.509 6.063-3.938 6.183-6.842 0.338zm18.941-38.838c5.816-4.9286 9.323-4.0724 5.207 1.2712-1.393 1.8067-4.343 3.2848-6.558 3.2848-3.608 0-3.468-0.4726 1.351-4.556zm-25.908-12.728c1.657-8.5347 9.068-18.683 9.068-12.417 0 1.9715-0.90099 4.1838-2.001 4.9165-1.1 0.7325-2 3.0956-2 5.2512s-1.468 5.2313-3.261 6.835c-2.944 2.6314-3.12 2.1845-1.806-4.5854zm195.89 109.33c3.045-2.398 3.188-3.593 1.04-8.67-2.221-5.252-7.271 1.834-7.779 10.913-0.079987 1.458 3.593 0.23399 6.739-2.243zm-46.643-4.565c5.025-1.643 16.73-7.151 26.008-12.24 15.962-8.757 17.962-9.302 37.245-10.159 15.913-0.707 20.635-1.629 21.553-4.208 3.7-10.388-25.225-9.626-49.997 1.317-56.278 24.861-76.959 21.128-76.959-13.892 0-14.12-0.204-14.693-8.086-22.771-12.919-13.239-21.141-10.605-13.995 4.484 2.303 4.865 4.076 12.802 4.076 18.253 0 30.884 28.607 49.534 60.155 39.216zm59.478-9.355c2.19-6.994 2.183-7.006-4.611-7.006-6.806 0-6.806 0-2.396 7.285 2.424 4.006 4.5 7.157 4.612 7.004 0.11099-0.15399 1.19-3.431 2.395-7.283zm7.512 3.582c0.73999-1.287 0.46301-3.291-0.61398-4.452-1.277-1.377-2.335-0.56099-3.04 2.343-1.136 4.68 1.354 6.118 3.654 2.109zm10.895-7.354c2.127-2.761 1.543-3.234-4.001-3.234-5.543 0-6.128 0.47301-4.001 3.234 1.37 1.778 3.171 3.231 4.001 3.231 0.83099 0 2.632-1.453 4.001-3.231zm-36.009-29.096c0-7.184-0.668-8.621-4.003-8.621-4.68 0-4.777 0.613-1.598 10.084 3.237 9.643 5.601 9.025 5.601-1.463zm44.011 2.635c0-7.588-6.534-11.468-11.259-6.685-4.487 4.54-5.061 4.634-8.13 1.327-3.069-3.306-3.474-3.303-5.741 0.035995-2.045 3.013-3.284 3.18-7.66 1.032-4.311-2.117-5.22-2.022-5.22 0.53999 0 2.409 3.913 3.263 17.504 3.821 9.629 0.395 18.18 0.91699 19.006 1.161 0.82501 0.244 1.5-0.311 1.5-1.232zm-294.44-7.635c1.4061-7.865-1.2627-11.129-5.6238-6.877-2.2619 2.205-5.5981 3.316-7.9607 2.65-5.9013-1.662-4.9855 2.082 1.4348 5.867 6.824 4.023 11.244 3.427 12.15-1.64zm267.15-2.543c0.841-2.361-0.246-3.233-4.03-3.233-4.382 0-4.799 0.501-2.694 3.233 1.369 1.778 3.184 3.233 4.032 3.233 0.84799 0 2.059-1.455 2.692-3.233zm15.282-2.155c2.105-2.732 1.688-3.233-2.692-3.233-3.787 0-4.874 0.87199-4.033 3.233 0.634 1.778 1.845 3.232 2.693 3.232 0.84799 0 2.663-1.454 4.032-3.232zm-270.42-45.999c0.7289-5.5453-2.5512-5.298-14.168 1.0683-7.818 4.2846-6.8646 5.3899 4.0013 4.6388 8.2305-0.5687 9.5916-1.3331 10.166-5.7071zm89.963-15.609c0.41-5.268-0.672-9.3371-3.434-12.913-4.036-5.2213-4.036-5.2213-4.102 1.352-0.037003 3.6155-1.051 7.633-2.253 8.9284-3.086 3.326 1.448 11.904 5.823 11.012 2.258-0.4609 3.563-3.2169 3.966-8.3788zm-52.061-7.4805c7.904-5.964 1.273-11.731-13.489-11.731-14.228 0-15.408 2.1611-4.7474 8.6929 11.674 7.1528 12.584 7.3041 18.236 3.0385z" fill="inherit"/></g></svg>